<?xml version="1.0" standalone="no"?>
  <!DOCTYPE svg PUBLIC "-//W3C//DTD SVG 1.1//EN" "http://www.w3.org/Graphics/SVG/1.1/DTD/svg11.dtd" >
  <svg>
  <metadata>
  Created by font-carrier
  </metadata>
  <defs>
  <font id="VeraHumana95" horiz-adv-x="1178" vert-adv-y="1178" >
    <font-face
      
      font-family="Vera Humana 95"
      
      font-weight="400"
      
      font-stretch="normal"
      
      units-per-em="1024"
      
      ascent="759"
      
      descent="-265"
      
    />
      <missing-glyph />

      

      
      <glyph glyph-name="uni21" unicode="&#x21;" d="M109 47Q109 70 125 86Q141 102 164 102Q187 102 203 86Q219 70 219 47Q219 24 202.50 7.50Q186-9 164-9Q141-9 125 7.50Q109 24 109 47M154 166L117 613Q116 625 116 643Q116 696 163 696Q211 696 211 643Q211 625 210 613L173 166L154 166Z"  horiz-adv-x="328" vert-adv-y="1024"  />

      
      <glyph glyph-name="uni22" unicode="&#x22;" d="M97 700L97 430L48 430L48 700L97 700M231 700L231 430L181 430L181 700L231 700Z"  horiz-adv-x="278" vert-adv-y="1024"  />

      
      <glyph glyph-name="uni23" unicode="&#x23;" d="M448 710L366 474L495 474L579 710L641 710L558 474L712 474L694 422L539 422L491 286L657 286L639 234L473 234L390 0L327 0L411 234L280 234L196 0L134 0L217 234L57 234L76 286L235 286L284 422L112 422L129 474L302 474L386 710L448 710M476 422L346 422L299 286L429 286L476 422Z"  horiz-adv-x="769" vert-adv-y="1024"  />

      
      <glyph glyph-name="uni24" unicode="&#x24;" d="M249-101Q251-45 251-24L251 0Q152 0 75 47Q93 88 102 125Q164 37 249 37L252 37L252 309Q160 332 118.50 371.50Q77 411 77 478Q77 544 122.50 591Q168 638 248 649L248 668Q248 684 246 720Q249 720 255 720Q261 719 264 719Q273 719 289 721Q287 685 287 652Q374 652 436 609Q412 575 398 546Q373 612 287 619L287 378L310 373Q474 337 474 201Q474 123 426 70.50Q378 18 291 2L291-22Q291-41 293-101Q283-98 271-98Q261-98 249-101M252 388L252 617Q203 614 171.50 582.50Q140 551 140 506Q140 420 252 388M287 40Q340 47 371 83Q402 119 402 174Q402 225 376 252.50Q350 280 287 301L287 40Z"  horiz-adv-x="549" vert-adv-y="1024"  />

      
      <glyph glyph-name="uni25" unicode="&#x25;" d="M35 488Q35 559 79.50 604.50Q124 650 190 650Q255 650 295.50 608Q336 566 336 494Q336 417 293 371.50Q250 326 179 326Q114 326 74.50 370.50Q35 415 35 488M175-93L128-93L597 743L642 743L175-93M432 161Q432 232 476.50 277.50Q521 323 587 323Q652 323 692.50 281Q733 239 733 167Q733 90 690 44.50Q647-1 576-1Q511-1 471.50 43.50Q432 88 432 161M185 621Q108 621 108 500Q108 425 125.50 390Q143 355 185 355Q262 355 262 480Q262 621 185 621M586 293Q509 293 509 173Q509 98 526.50 63Q544 28 586 28Q663 28 663 152Q663 293 586 293Z"  horiz-adv-x="769" vert-adv-y="1024"  />

      
      <glyph glyph-name="uni26" unicode="&#x26;" d="M451 113Q353 231 263 351Q148 285 148 181Q148 119 190 75Q232 31 294 31Q393 31 451 113M537 0Q504 49 471 86Q380-12 256-12Q171-12 120 34Q69 80 69 154Q69 223 113 275Q153 325 246 375Q178 457 178 532Q178 602 220 643.50Q262 685 332 685Q390 685 424.50 654Q459 623 459 570Q459 474 328 394Q412 276 506 176Q567 255 614 375Q622 367 635.50 354.50Q649 342 655 336Q587 227 525 151L595 69Q607 55 662 0Q634 5 598 5Q562 5 537 0M312 416Q408 485 408 567Q408 607 387 632Q366 657 332 657Q292 657 267.50 630.50Q243 604 243 561Q243 499 312 416Z"  horiz-adv-x="711" vert-adv-y="1024"  />

      
      <glyph glyph-name="uni27" unicode="&#x27;" d="M97 700L97 430L48 430L48 700L97 700Z"  horiz-adv-x="144" vert-adv-y="1024"  />

      
      <glyph glyph-name="uni28" unicode="&#x28;" d="M223-127Q67 38 67 283Q67 528 222 694L243 676Q129 522 129 287Q129 33 242-104L223-127Z"  horiz-adv-x="275" vert-adv-y="1024"  />

      
      <glyph glyph-name="uni29" unicode="&#x29;" d="M53 696Q210 533 210 294Q210 42 55-125L34-107Q148 43 148 282Q148 533 34 673L53 696Z"  horiz-adv-x="275" vert-adv-y="1024"  />

      
      <glyph glyph-name="uni2a" unicode="&#x2a;" d="M260 495Q268 406 282 343Q266 346 248 346Q233 346 216 343Q227 409 232 495Q165 449 112 402Q102 432 80 457Q165 493 219 520Q149 555 77 577Q98 603 110 634Q152 603 233 544Q228 620 212 696Q229 693 244 693Q261 693 276 696Q266 616 262 544Q329 589 382 638Q391 613 414 582Q344 554 275 519Q347 487 417 462Q393 433 384 406Q348 432 260 495Z"  horiz-adv-x="494" vert-adv-y="1024"  />

      
      <glyph glyph-name="uni2b" unicode="&#x2b;" d="M441 596L441 322L709 322L709 274L441 274L441 0L393 0L393 274L124 274L124 322L393 322L393 596L441 596Z"  horiz-adv-x="833" vert-adv-y="1024"  />

      
      <glyph glyph-name="uni2c" unicode="&#x2c;" d="M44-175L114 64Q127 110 160 110Q197 110 197 72Q197 57 184 34L60-182L44-175Z"  horiz-adv-x="274" vert-adv-y="1024"  />

      
      <glyph glyph-name="uni2d" unicode="&#x2d;" d="M44 210L44 274L289 274L289 210L44 210Z"  horiz-adv-x="333" vert-adv-y="1024"  />

      
      <glyph glyph-name="uni2010" unicode="&#x2010;" d="M44 210L44 274L289 274L289 210L44 210Z"  horiz-adv-x="333" vert-adv-y="1024"  />

      
      <glyph glyph-name="uni2e" unicode="&#x2e;" d="M81 46Q81 69 97.50 85.50Q114 102 137 102Q160 102 176.50 85.50Q193 69 193 46Q193 24 176.50 7.50Q160-9 137-9Q114-9 97.50 7Q81 23 81 46Z"  horiz-adv-x="274" vert-adv-y="1024"  />

      
      <glyph glyph-name="uni2f" unicode="&#x2f;" d="M-21-93L253 750L297 750L23-93L-21-93Z"  horiz-adv-x="281" vert-adv-y="1024"  />

      
      <glyph glyph-name="uni30" unicode="&#x30;" d="M125 326Q125 166 159 93Q194 17 275 17Q361 17 394 95Q424 166 424 338Q424 490 388.50 562Q353 634 275 634Q193 634 158 558Q125 487 125 326M41 325Q41 666 274 666Q508 666 508 325Q508-15 274-15Q41-15 41 325Z"  horiz-adv-x="549" vert-adv-y="1024"  />

      
      <glyph glyph-name="uni31" unicode="&#x31;" d="M246 0Q256 233 256 454Q256 531 253 603L101 515Q89 543 69 561Q171 599 344 687Q335 515 335 173Q335 66 337 0Q317 4 292 4Q267 4 246 0Z"  horiz-adv-x="549" vert-adv-y="1024"  />

      
      <glyph glyph-name="uni32" unicode="&#x32;" d="M47 0L47 17Q223 189 283 271Q367 384 367 483Q367 552 335.50 591Q304 630 250 630Q158 630 122 512Q102 547 82 568Q147 666 267 666Q356 666 405.50 618Q455 570 455 486Q455 397 377 305Q315 241 154 67Q190 66 253 66Q332 66 462 75Q460 55 460 45Q460 23 463 0Q327 2 257 2Q189 2 47 0Z"  horiz-adv-x="549" vert-adv-y="1024"  />

      
      <glyph glyph-name="uni33" unicode="&#x33;" d="M62 18Q74 57 77 99Q120 19 219 19Q368 19 368 193Q368 257 334.50 292.50Q301 328 243 328Q219 328 186 322Q188 336 188 342Q188 349 186 363Q193 362 208 362Q340 362 340 505Q340 565 311 599.50Q282 634 234 634Q152 634 122 546Q100 581 83 601Q148 666 248 666Q331 666 378 624Q425 582 425 509Q425 399 286 347Q458 341 458 188Q458 97 391.50 40.50Q325-16 214-16Q122-16 62 18Z"  horiz-adv-x="549" vert-adv-y="1024"  />

      
      <glyph glyph-name="uni34" unicode="&#x34;" d="M323 0Q328 90 328 136Q328 144 328 160Q327 177 327 186Q225 188 179 188Q96 188 19 185L19 200Q149 374 341 663Q363 661 373 661Q383 661 405 663Q400 583 400 369Q400 289 401 244Q412 243 434 243Q464 243 492 246L492 186Q454 186 401 189Q400 131 400 79Q400 32 403 0Q391 2 364 2Q337 2 323 0M100 244L330 244L330 573Q275 513 100 244Z"  horiz-adv-x="549" vert-adv-y="1024"  />

      
      <glyph glyph-name="uni35" unicode="&#x35;" d="M62 20Q73 62 80 103Q125 19 222 19Q290 19 332 68Q374 117 374 201Q374 272 337.50 311Q301 350 236 350Q177 350 133 320L120 323Q126 374 126 435Q126 557 118 650Q173 643 250 643Q324 643 439 650Q436 629 436 610Q436 598 438 580Q409 585 336 585L172 585Q165 492 165 398L165 366Q197 389 277 389Q362 389 410.50 340Q459 291 459 205Q459 105 391.50 44.50Q324-16 209-16Q121-16 62 20Z"  horiz-adv-x="549" vert-adv-y="1024"  />

      
      <glyph glyph-name="uni36" unicode="&#x36;" d="M141 308Q207 393 310 393Q395 393 445 342.50Q495 292 495 208Q495 106 435.50 45.50Q376-15 276-15Q174-15 115.50 59Q57 133 57 267Q57 448 143 560Q226 669 355 669Q385 669 421 658Q421 654 421 646Q420 638 420 634Q420 627 422 611Q389 635 346 635Q265 635 211 551Q153 463 141 308M148 191Q148 113 184.50 65Q221 17 277 17Q338 17 373.50 63.50Q409 110 409 193Q409 356 283 356Q224 356 186 311Q148 266 148 191Z"  horiz-adv-x="549" vert-adv-y="1024"  />

      
      <glyph glyph-name="uni37" unicode="&#x37;" d="M84 0Q176 138 423 575L238 575Q144 575 87 568Q88 581 88 607Q88 636 86 650Q199 645 358 645Q445 645 500 650L500 625Q213 136 157 0Q144 2 119 2Q95 2 84 0Z"  horiz-adv-x="549" vert-adv-y="1024"  />

      
      <glyph glyph-name="uni38" unicode="&#x38;" d="M207 369Q88 408 88 506Q88 579 139 622.50Q190 666 275 666Q364 666 412.50 627Q461 588 461 518Q461 408 344 372Q495 335 495 194Q495 98 435 41.50Q375-15 275-15Q170-15 112 36.50Q54 88 54 180Q54 316 207 369M143 181Q143 103 177.50 61Q212 19 275 19Q336 19 370 61.50Q404 104 404 181Q404 352 280 352Q143 352 143 181M174 509Q174 383 275 383Q325 383 353.50 415Q382 447 382 506Q382 633 278 633Q174 633 174 509Z"  horiz-adv-x="549" vert-adv-y="1024"  />

      
      <glyph glyph-name="uni39" unicode="&#x39;" d="M106 3Q106 6 107 14Q107 21 107 25Q107 36 105 58Q156 19 210 19Q289 19 340 94Q403 186 403 325Q403 338 402 351Q354 262 236 262Q153 262 102 314Q51 366 51 453Q51 548 113 607.50Q175 667 274 667Q377 667 434 594.50Q491 522 491 388Q491 204 411 95Q331-14 202-14Q151-14 106 3M268 636Q207 636 169 586Q131 536 131 453Q131 383 167 342.50Q203 302 265 302Q328 302 363 345.50Q398 389 398 470Q398 550 363.50 593Q329 636 268 636Z"  horiz-adv-x="549" vert-adv-y="1024"  />

      
      <glyph glyph-name="uni3a" unicode="&#x3a;" d="M108 46Q108 69 124 85Q140 101 163 101Q186 101 202.50 85Q219 69 219 46Q219 24 202.50 7.50Q186-9 163-9Q140-9 124 7Q108 23 108 46M108 394Q108 417 124 433Q140 449 163 449Q186 449 202.50 433Q219 417 219 394Q219 372 202.50 355Q186 338 163 338Q140 338 124 354.50Q108 371 108 394Z"  horiz-adv-x="326" vert-adv-y="1024"  />

      
      <glyph glyph-name="uni3b" unicode="&#x3b;" d="M114 394Q114 416 130.50 432.50Q147 449 170 449Q193 449 209 433Q225 417 225 394Q225 371 208.50 354.50Q192 338 170 338Q147 338 130.50 354.50Q114 371 114 394M66-174L136 66Q149 111 181 111Q197 111 208.50 100Q220 89 220 72Q220 58 207 35L83-181L66-174Z"  horiz-adv-x="326" vert-adv-y="1024"  />

      
      <glyph glyph-name="uni3c" unicode="&#x3c;" d="M704 501L205 298L704 96L704 43L129 278L129 318L704 554L704 501Z"  horiz-adv-x="833" vert-adv-y="1024"  />

      
      <glyph glyph-name="uni3d" unicode="&#x3d;" d="M709 413L709 365L124 365L124 413L709 413M709 231L709 183L124 183L124 231L709 231Z"  horiz-adv-x="833" vert-adv-y="1024"  />

      
      <glyph glyph-name="uni3e" unicode="&#x3e;" d="M704 318L704 278L129 43L129 96L628 298L129 501L129 554L704 318Z"  horiz-adv-x="833" vert-adv-y="1024"  />

      
      <glyph glyph-name="uni3f" unicode="&#x3f;" d="M149 46Q149 69 165 85Q181 101 204 101Q227 101 243 85Q259 69 259 46Q259 24 243 7.50Q227-9 204-9Q181-9 165 7Q149 23 149 46M261 208L253 179Q236 174 219 174Q166 174 135.50 206.50Q105 239 105 292Q105 348 167 413L233 482Q278 529 278 575Q278 615 255 638.50Q232 662 194 662Q124 662 97 599L87 660Q147 696 204 696Q269 696 308 657.50Q347 619 347 553Q347 487 285 422L229 363Q168 299 168 260Q168 234 184 218Q200 202 226 202Q240 202 261 208Z"  horiz-adv-x="385" vert-adv-y="1024"  />

      
      <glyph glyph-name="uni40" unicode="&#x40;" d="M591 229L621 350Q602 447 516 447Q440 447 391.50 381Q343 315 343 217Q343 162 370 132Q397 102 444 102Q496 102 536.50 136.50Q577 171 591 229M634 408L663 469L709 469L641 195Q633 163 633 150Q633 105 685 105Q737 105 788 145Q888 224 888 383Q888 505 792 585.50Q696 666 543 666Q359 666 238 551Q114 434 114 250Q114 84 233-12Q338-97 499-97Q671-97 809-3L828-30Q684-138 509-138Q323-138 205-48Q57 65 57 262Q57 466 222 602Q353 710 544 710Q710 710 816 628Q943 530 943 380Q943 209 824 115Q755 61 673 61Q579 61 579 135Q579 137 580 142Q580 146 580 149Q529 61 436 61Q283 61 283 221Q283 334 349.50 411Q416 488 510 488Q602 488 634 408Z"  horiz-adv-x="1000" vert-adv-y="1024"  />

      
      <glyph glyph-name="uni41" unicode="&#x41;" d="M-4 1Q173 388 305 696L324 696Q464 346 614 0Q587 5 565 5Q542 5 514 0Q477 113 429 227L412 267Q371 269 289 269Q206 269 165 267Q118 160 62 0Q45 5 29 5Q18 5-4 1M182 311Q188 311 213 311Q238 310 258 310Q273 310 318 311Q363 311 392 311L375 355Q362 389 289 559L182 311Z"  horiz-adv-x="619" vert-adv-y="1024"  />

      
      <glyph glyph-name="uni42" unicode="&#x42;" d="M176 341L176 242Q176 108 182 43Q220 34 250 34Q338 34 388.50 76Q439 118 439 191Q439 345 246 345Q230 345 176 341M89-2Q99 94 99 274Q99 556 93 683Q137 681 141 681Q151 681 191.50 682.50Q232 684 262 684Q390 684 450.50 648Q511 612 511 531Q511 400 343 367Q530 348 530 202Q530-2 260-2Q235-2 196 0Q157 2 142 2Q125 2 89-2M179 383Q209 380 235 380Q420 380 420 525Q420 651 255 651Q226 651 184 646Q179 591 179 517L179 383Z"  horiz-adv-x="596" vert-adv-y="1024"  />

      
      <glyph glyph-name="uni43" unicode="&#x43;" d="M614 43Q538-13 390-13Q224-13 132.50 79.50Q41 172 41 341Q41 502 141.50 599Q242 696 412 696Q531 696 627 648Q611 597 611 552Q542 659 409 659Q284 659 214 575.50Q144 492 144 340Q144 192 213.50 108.50Q283 25 402 25Q517 25 620 109L614 43Z"  horiz-adv-x="656" vert-adv-y="1024"  />

      
      <glyph glyph-name="uni44" unicode="&#x44;" d="M89 0Q93 107 93 341Q93 581 89 683Q133 681 164 681Q184 681 248.50 683.50Q313 686 358 686Q510 686 581 638Q709 552 709 362Q709 185 608.50 91.50Q508-2 315-2Q292-2 243 0Q194 2 169 2Q171 2 89 0M179 43Q242 38 284 38Q612 38 612 343Q612 504 545 575Q478 646 329 646Q248 646 178 641Q175 502 175 367Q175 184 179 43Z"  horiz-adv-x="755" vert-adv-y="1024"  />

      
      <glyph glyph-name="uni45" unicode="&#x45;" d="M89 0Q97 123 97 349Q97 553 90 683Q147 680 212 680Q279 680 441 683Q441 679 441 669Q440 659 440 654Q440 650 441 640Q441 630 441 625Q327 635 204 635L181 635Q179 516 179 424L179 384L197 384Q289 384 414 392Q412 372 412 361Q412 351 414 333Q370 341 225 341L178 341L178 293Q178 249 180 49L205 49Q295 49 445 60Q445 55 445 45Q444 35 444 30Q444 25 445 15Q445 5 445 0Q391 2 274 2Q153 2 89 0Z"  horiz-adv-x="495" vert-adv-y="1024"  />

      
      <glyph glyph-name="uni46" unicode="&#x46;" d="M90 0Q98 103 98 254Q98 468 90 683Q146 680 226 680Q306 680 447 683Q447 678 447 667Q446 656 446 650Q446 645 447 634Q447 624 447 618Q377 633 206 633L182 633Q179 580 179 484L179 384L259 384Q348 384 428 391Q427 382 427 362Q427 343 428 333Q281 342 208 342L179 342L179 112Q179 26 183 0Q160 4 133 4Q109 4 90 0Z"  horiz-adv-x="493" vert-adv-y="1024"  />

      
      <glyph glyph-name="uni47" unicode="&#x47;" d="M680 30Q538-12 414-12Q242-12 142 81Q42 174 42 331Q42 497 149.50 596.50Q257 696 438 696Q583 696 684 632Q669 586 660 544Q582 658 422 658Q297 658 219 572Q141 486 141 340Q141 196 222 110.50Q303 25 434 25Q518 25 596 59Q598 127 598 157Q598 224 595 285Q623 281 637 281Q651 281 679 285Q676 179 676 128Q676 70 680 30Z"  horiz-adv-x="730" vert-adv-y="1024"  />

      
      <glyph glyph-name="uni48" unicode="&#x48;" d="M90 0Q98 121 98 368Q98 584 91 683Q112 679 138 679Q164 679 184 683Q178 634 178 429L178 390Q247 389 385 389Q522 389 591 390L591 429Q591 572 582 683Q603 679 630 679Q657 679 677 683Q670 540 670 368Q670 213 678 0Q657 4 629 4Q603 4 583 0Q591 126 591 299L591 346Q488 349 385 349Q282 349 178 346L178 299Q178 53 183 0Q162 4 135 4Q110 4 90 0Z"  horiz-adv-x="766" vert-adv-y="1024"  />

      
      <glyph glyph-name="uni49" unicode="&#x49;" d="M92 0Q98 94 98 258L98 341Q98 592 92 683Q112 679 137 679Q163 679 184 683Q179 617 179 487L179 341Q179 310 179 255Q178 200 178 176Q178 60 184 0Q159 5 139 5Q119 5 92 0Z"  horiz-adv-x="275" vert-adv-y="1024"  />

      
      <glyph glyph-name="uni4a" unicode="&#x4a;" d="M-19-139L-25-110Q56-99 82-45Q104 0 104 125Q104 543 96 682Q117 679 136 679Q164 679 185 683Q181 588 181 429Q181 318 183 207Q185 96 185 95Q185-18 138-73Q91-128-19-139Z"  horiz-adv-x="275" vert-adv-y="1024"  />

      
      <glyph glyph-name="uni4b" unicode="&#x4b;" d="M90 0Q97 107 97 296Q97 557 90 682Q120 678 134 678Q155 678 182 683Q176 619 176 521L176 368Q178 365 181 365Q229 365 494 683Q514 679 538 679Q563 679 583 683Q553 660 415 524L268 379Q333 297 593 0Q560 5 534 5Q508 5 478 0Q404 101 361 155L246 297Q207 345 176 346L176 227Q176 91 182 0Q155 5 135 5Q115 5 90 0Z"  horiz-adv-x="580" vert-adv-y="1024"  />

      
      <glyph glyph-name="uni4c" unicode="&#x4c;" d="M90 0Q97 204 97 341Q97 494 90 683Q111 679 137 679Q163 679 183 683Q173 436 173 328Q173 222 180 47Q200 46 248 46Q381 46 452 62Q452 57 452 47Q451 37 451 31Q451 26 452 16Q452 6 452 0L220 3Q150 3 90 0Z"  horiz-adv-x="491" vert-adv-y="1024"  />

      
      <glyph glyph-name="uni4d" unicode="&#x4d;" d="M35 0Q70 155 138 696L155 696Q321 362 436 153Q564 380 732 696L745 696Q771 443 824 0Q799 5 779 5Q759 5 734 0Q708 373 682 499Q486 171 426 1L412 1Q391 73 317 210L161 498Q114 166 112 0Q92 5 75 5Q58 5 35 0Z"  horiz-adv-x="877" vert-adv-y="1024"  />

      
      <glyph glyph-name="uni4e" unicode="&#x4e;" d="M82 0Q95 270 95 590L95 696L114 696Q323 454 605 170Q607 238 607 258Q607 503 599 683Q621 679 631 679Q642 679 662 683Q654 455 654 214Q654 129 656-13L643-13Q559 92 387 273L145 528Q143 440 143 397Q143 244 150 0Q132 5 116 5Q102 5 82 0Z"  horiz-adv-x="746" vert-adv-y="1024"  />

      
      <glyph glyph-name="uni4f" unicode="&#x4f;" d="M410-14Q239-14 140 81Q41 176 41 340Q41 502 141.50 598.50Q242 695 410 695Q580 695 679 599Q778 503 778 340Q778 181 677 83.50Q576-14 410-14M410 24Q539 24 609 106Q679 188 679 341Q679 496 610 577Q541 658 410 658Q281 658 211 574.50Q141 491 141 337Q141 186 210.50 105Q280 24 410 24Z"  horiz-adv-x="820" vert-adv-y="1024"  />

      
      <glyph glyph-name="uni50" unicode="&#x50;" d="M88 0Q94 165 94 341Q94 524 88 683Q117 680 137 680Q161 680 216.50 683.50Q272 687 304 687Q412 687 470 641Q528 595 528 512Q528 416 457 363.50Q386 311 251 311Q207 311 175 313L175 170Q175 91 180 1Q152 5 138 5Q116 5 88 0M174 349Q204 347 219 347Q434 347 434 503Q434 582 388 615Q342 648 241 648Q212 648 179 645Q174 537 174 439L174 349Z"  horiz-adv-x="550" vert-adv-y="1024"  />

      
      <glyph glyph-name="uni51" unicode="&#x51;" d="M452-11Q415-14 394-14Q239-14 140 83Q41 180 41 340Q41 502 141.50 598.50Q242 695 410 695Q580 695 679 599Q778 503 778 340Q778 214 713.50 125.50Q649 37 528 0Q632-80 771-174Q733-188 696-219Q574-101 452-11M410 24Q539 24 609 106Q679 188 679 341Q679 496 610 577Q541 658 410 658Q281 658 211 574.50Q141 491 141 337Q141 186 210.50 105Q280 24 410 24Z"  horiz-adv-x="820" vert-adv-y="1024"  />

      
      <glyph glyph-name="uni52" unicode="&#x52;" d="M91 0Q98 116 98 341Q98 558 91 683Q129 681 137 681Q156 681 209 683Q262 685 297 685Q522 685 522 523Q522 453 470.50 404.50Q419 356 322 338Q393 244 590 0Q557 5 530 5Q504 5 472 0Q393 115 347 174L238 314Q221 336 198 336Q193 336 179 334L179 151Q179 93 184 0Q159 5 138 5Q118 5 91 0M179 365Q191 364 212 364Q435 364 435 511Q435 646 263 646Q233 646 185 643Q179 599 179 541L179 365Z"  horiz-adv-x="595" vert-adv-y="1024"  />

      
      <glyph glyph-name="uni53" unicode="&#x53;" d="M42 40Q60 93 64 146Q111 27 229 27Q293 27 332.50 66.50Q372 106 372 174Q372 222 347 251Q325 277 271 300L190 334Q57 390 57 502Q57 587 115.50 641Q174 695 268 695Q347 695 420 658Q405 627 392 581Q339 658 254 658Q199 658 166.50 624.50Q134 591 134 534Q134 456 235 412L316 377Q386 347 417 307Q448 267 448 203Q448 106 383 46.50Q318-13 210-13Q110-13 42 40Z"  horiz-adv-x="490" vert-adv-y="1024"  />

      
      <glyph glyph-name="uni54" unicode="&#x54;" d="M226 0Q231 275 231 469L231 636L204 636Q85 636 20 624Q22 642 22 652Q22 663 20 683Q134 680 259 680Q386 680 525 683Q522 670 522 654Q522 639 525 624Q458 636 348 636L319 636Q314 553 314 412Q314 230 319 0Q305 2 274 2Q243 2 226 0Z"  horiz-adv-x="545" vert-adv-y="1024"  />

      
      <glyph glyph-name="uni55" unicode="&#x55;" d="M91 683Q111 679 135 679Q162 679 182 684L178 320Q178 244 185 205Q195 141 228 101Q284 33 392 33Q501 33 557 103Q589 143 599 213Q606 260 606 370Q606 539 602 683Q617 679 633 679Q651 679 666 683Q661 554 661 501L661 475Q661 312 656 249Q647 154 620 106Q551-13 376-13Q227-13 159 59.50Q91 132 91 288Q91 294 92.50 363Q94 432 94 494Q94 575 91 683Z"  horiz-adv-x="750" vert-adv-y="1024"  />

      
      <glyph glyph-name="uni56" unicode="&#x56;" d="M278 0Q127 396 6 683Q29 679 55 679Q83 679 104 683Q205 403 330 99Q453 398 552 683Q567 679 585 679Q604 679 619 683Q481 355 344 0Q326 5 311 5Q296 5 278 0Z"  horiz-adv-x="619" vert-adv-y="1024"  />

      
      <glyph glyph-name="uni57" unicode="&#x57;" d="M231 0Q154 255 17 683Q38 679 65 679Q92 679 113 683Q195 380 286 95Q390 380 474 683Q489 679 506 679Q524 679 539 683Q627 395 731 105Q830 389 905 683Q920 679 937 679Q956 679 971 683Q907 495 743 0Q727 4 708 4Q687 4 672-1Q598 254 488 559L301 0Q281 5 266 5Q251 5 231 0Z"  horiz-adv-x="982" vert-adv-y="1024"  />

      
      <glyph glyph-name="uni58" unicode="&#x58;" d="M21 0Q67 71 222 303L246 339L228 371Q179 459 42 683Q66 679 95 679Q124 679 147 683Q238 506 275 449L298 413L322 448Q375 525 459 683Q477 677 495 677Q514 677 532 683Q411 510 338 398L321 372L342 337Q373 286 546 0Q516 5 492 5Q467 5 437 0Q379 118 294 259L270 299L246 264Q190 182 94 0Q74 5 58 5Q41 5 21 0Z"  horiz-adv-x="559" vert-adv-y="1024"  />

      
      <glyph glyph-name="uni59" unicode="&#x59;" d="M228 0Q233 82 233 143Q233 205 228 280Q91 516-9 683Q15 679 46 679Q77 679 101 683Q180 504 288 344Q392 512 468 683Q485 679 505 679Q526 679 542 683Q416 479 315 296Q313 226 313 190Q313 95 319 0Q294 5 274 5Q253 5 228 0Z"  horiz-adv-x="536" vert-adv-y="1024"  />

      
      <glyph glyph-name="uni5a" unicode="&#x5a;" d="M8 0Q242 330 438 635Q412 636 358 636Q223 636 58 625Q60 645 60 654Q60 665 58 683Q234 679 323 679Q411 679 587 683Q340 356 147 51Q227 49 267 49Q410 49 569 60Q568 50 568 30Q568 9 569-1Q353 3 250 3Q127 3 8 0Z"  horiz-adv-x="599" vert-adv-y="1024"  />

      
      <glyph glyph-name="uni5b" unicode="&#x5b;" d="M75-110Q77-70 77 80L77 492Q77 643 75 683Q87 683 111 683Q135 682 148 682Q160 682 186 683Q211 683 224 683L224 648Q209 652 185 652L139 652Q134 576 134 400L134 172Q134-1 139-79L185-79Q209-79 224-75L224-110Q198-109 147-109Q99-109 75-110Z"  horiz-adv-x="275" vert-adv-y="1024"  />

      
      <glyph glyph-name="uni5c" unicode="&#x5c;" d="M-21 750L23 750L297-93L253-93L-21 750Z"  horiz-adv-x="281" vert-adv-y="1024"  />

      
      <glyph glyph-name="uni5d" unicode="&#x5d;" d="M184 683Q182 646 182 496L182 82Q182-69 184-110Q161-109 111-109Q61-109 35-110L35-75Q50-79 74-79L120-79Q125-17 125 172L125 400Q125 591 120 652L74 652Q50 652 35 648L35 683Q48 683 74 683Q99 682 111 682Q124 682 148 683Q173 683 184 683Z"  horiz-adv-x="275" vert-adv-y="1024"  />

      
      <glyph glyph-name="uni5e" unicode="&#x5e;" d="M534 712L793 440L723 440L500 662L276 440L206 440L466 712L534 712Z"  horiz-adv-x="1000" vert-adv-y="1024"  />

      
      <glyph glyph-name="uni5f" unicode="&#x5f;" d="M500-187L500-236L0-236L0-187L500-187Z"  horiz-adv-x="500" vert-adv-y="1024"  />

      
      <glyph glyph-name="uni60" unicode="&#x60;" d="M336 536L303 536L142 636Q112 655 112 676Q112 711 148 711Q167 711 195 682L336 536Z"  horiz-adv-x="500" vert-adv-y="1024"  />

      
      <glyph glyph-name="uni61" unicode="&#x61;" d="M322 58Q258-9 173-9Q35-9 35 114Q35 219 151 244Q206 255 262 266Q309 276 325 290L325 311Q325 378 299.50 410Q274 442 214 442Q132 442 85 371L77 371L79 424Q146 480 240 480Q324 480 361 439.50Q398 399 398 312L398 300L394 101Q394 67 399 55Q408 35 438 35Q449 35 455 36L459 16Q405 0 377 0Q331 0 322 58M323 248Q205 228 166 208Q117 183 117 127Q117 32 206 32Q262 32 306 76Q323 93 323 119L323 248Z"  horiz-adv-x="481" vert-adv-y="1024"  />

      
      <glyph glyph-name="uni62" unicode="&#x62;" d="M72 0Q75 74 75 250L75 534Q75 691 72 750Q91 746 115 746Q138 746 157 750Q150 607 150 486Q150 471 151 439Q151 407 151 390Q212 481 311 481Q404 481 458.50 420Q513 359 513 254Q513 136 452 63.50Q391-9 292-9Q213-9 144 53Q118 33 91 0L72 0M289 441Q143 441 143 214Q143 26 280 26Q351 26 390 84Q429 142 429 250Q429 441 289 441Z"  horiz-adv-x="549" vert-adv-y="1024"  />

      
      <glyph glyph-name="uni63" unicode="&#x63;" d="M440 40Q376-10 269-10Q164-10 99.50 57Q35 124 35 235Q35 347 103 414Q171 481 283 481Q369 481 446 441Q430 404 419 355Q377 449 283 449Q204 449 160 393.50Q116 338 116 236Q116 138 163.50 81.50Q211 25 290 25Q370 25 441 97Q439 69 439 60Q439 46 440 40Z"  horiz-adv-x="463" vert-adv-y="1024"  />

      
      <glyph glyph-name="uni64" unicode="&#x64;" d="M406 0Q408 38 408 59Q408 84 407 97Q352-9 236-9Q146-9 90.50 55.50Q35 120 35 228Q35 342 94.50 411.50Q154 481 247 481Q350 481 405 389Q405 439 406 499Q406 559 406 569Q406 663 403 750Q429 743 446 743Q464 743 488 750Q484 631 484 429Q484 192 490 0Q467 5 448 5Q429 5 406 0M267 443Q197 443 157.50 388Q118 333 118 231Q118 134 154.50 81.50Q191 29 256 29Q328 29 367.50 85.50Q407 142 407 250Q407 343 370 393Q333 443 267 443Z"  horiz-adv-x="560" vert-adv-y="1024"  />

      
      <glyph glyph-name="uni65" unicode="&#x65;" d="M124 277L387 277L387 294Q387 368 353.50 409.50Q320 451 262 451Q205 451 166 405Q127 356 124 277M442 48Q364-9 272-9Q167-9 101.50 59Q36 127 36 235Q36 347 99 414.50Q162 482 266 482Q362 482 414.50 425.50Q467 369 467 264Q467 261 467 253Q466 246 466 242L122 242L122 239Q122 31 290 31Q376 31 444 98Q442 72 442 60L442 48Z"  horiz-adv-x="506" vert-adv-y="1024"  />

      
      <glyph glyph-name="uni66" unicode="&#x66;" d="M78 0Q85 63 85 304L85 430Q62 430 18 428L18 466Q48 464 60 464Q65 464 74 465Q83 465 87 465Q88 599 142 676Q194 750 280 750Q293 750 300 749L290 671Q265 683 233 683Q148 683 148 590Q148 549 156 465Q164 465 178 465Q193 464 200 464Q221 464 259 466L259 425Q253 425 158 430Q158 99 166 0Q143 5 122 5Q103 5 78 0Z"  horiz-adv-x="276" vert-adv-y="1024"  />

      
      <glyph glyph-name="uni67" unicode="&#x67;" d="M141 181Q41 213 41 315Q41 391 94.50 437Q148 483 240 483Q267 483 305.50 477.50Q344 472 357 472Q383 472 454 480L454 436Q421 439 392 439L372 439Q411 387 411 325Q411 250 362.50 207.50Q314 165 230 165Q217 165 198.50 167Q180 169 175 169Q128 169 128 122Q128 67 206 67Q205 67 224 68Q242 68 262 68Q368 68 413 41Q463 10 463-68Q463-160 393-217.50Q323-275 208-275Q124-275 75.50-235.50Q27-196 27-131Q27-33 138 4Q62 21 62 88Q62 141 141 181M174-2Q86-30 86-119Q86-175 124-210Q162-245 224-245Q299-245 346.50-205.50Q394-166 394-105Q394-40 349-18Q311 0 205 0Q196 0 174-2M336 323Q336 455 232 455Q182 455 151 418.50Q120 382 120 323Q120 260 150 225.50Q180 191 232 191Q336 191 336 323Z"  horiz-adv-x="457" vert-adv-y="1024"  />

      
      <glyph glyph-name="uni68" unicode="&#x68;" d="M75 0Q80 226 80 375Q80 553 75 750Q105 746 117 746Q132 746 158 750Q154 638 154 527Q154 486 156 390Q217 481 311 481Q471 481 471 307Q471 288 469.50 236.50Q468 185 468 153Q468 134 472 0Q450 5 431 5Q413 5 390 0Q395 183 395 266Q395 352 369 391.50Q343 431 281 431Q208 431 174 365Q154 326 154 188L154 117Q154 81 157 0Q134 5 115 5Q97 5 75 0Z"  horiz-adv-x="546" vert-adv-y="1024"  />

      
      <glyph glyph-name="uni69" unicode="&#x69;" d="M73 646Q73 667 88 681.50Q103 696 124 696Q145 696 160 681.50Q175 667 175 646Q175 625 160 610Q145 595 124 595Q103 595 88 610Q73 625 73 646M83 0Q88 137 88 248Q88 350 83 472Q102 468 124 468Q148 468 165 472Q160 349 160 248Q160 137 165 0Q143 5 124 5Q106 5 83 0Z"  horiz-adv-x="248" vert-adv-y="1024"  />

      
      <glyph glyph-name="uni6a" unicode="&#x6a;" d="M-13-273L-19-252Q52-244 72-182Q86-137 86 12Q86 330 78 472Q97 468 121 468Q146 468 165 472Q162 411 162 362L163-43Q163-159 127-209Q88-263-13-273M70 646Q70 667 84.50 681.50Q99 696 120 696Q141 696 156 681.50Q171 667 171 646Q171 625 156 610Q141 595 120 595Q99 595 84.50 610Q70 625 70 646Z"  horiz-adv-x="247" vert-adv-y="1024"  />

      
      <glyph glyph-name="uni6b" unicode="&#x6b;" d="M77 0Q82 193 82 375Q82 591 77 750Q105 746 119 746Q133 746 161 750Q155 506 155 319L155 285Q155 268 172 268Q188 268 242 318Q306 377 381 472Q404 469 425 469Q447 469 469 472Q429 445 339 360L249 275Q322 191 484 0Q459 4 428 4Q399 4 376 0Q193 248 165 248Q155 248 155 234L155 178Q155 94 161 0Q138 5 119 5Q100 5 77 0Z"  horiz-adv-x="486" vert-adv-y="1024"  />

      
      <glyph glyph-name="uni6c" unicode="&#x6c;" d="M75 0Q79 67 79 292L79 554Q79 695 75 750Q101 748 115 748Q130 748 158 750Q153 658 153 442Q153 109 158 0Q136 3 115 3Q95 3 75 0Z"  horiz-adv-x="233" vert-adv-y="1024"  />

      
      <glyph glyph-name="uni6d" unicode="&#x6d;" d="M78 0Q82 40 82 155L82 318Q82 433 78 472Q95 468 117 468Q138 468 155 472Q155 444 153 388Q225 482 312 482Q360 482 396.50 455Q433 428 446 382Q505 481 603 481Q674 481 714.50 437.50Q755 394 755 314Q755 308 752.50 248.50Q750 189 750 136Q750 93 755 0Q732 5 713 5Q695 5 672 0Q681 161 681 277Q681 356 654.50 392.50Q628 429 567 429Q497 429 472 365Q451 311 451 174Q451 83 454 0Q433 3 413 3Q393 3 373 0Q382 139 382 266Q382 352 359 390Q336 428 280 428Q222 428 190 388Q167 359 160 304Q155 267 155 174Q155 85 160 0Q139 3 119 3Q99 3 78 0Z"  horiz-adv-x="827" vert-adv-y="1024"  />

      
      <glyph glyph-name="uni6e" unicode="&#x6e;" d="M75 0Q79 56 79 174L79 245Q79 401 75 472Q94 468 116 468Q139 468 155 472Q153 436 153 421Q153 415 154 403Q154 391 154 385Q211 482 311 482Q471 482 471 303Q471 278 470 229.50Q469 181 469 158Q469 84 472 0Q449 5 431 5Q413 5 390 0Q396 105 396 283Q396 431 282 431Q223 431 189 388Q155 345 155 232L155 187Q155 51 158 0Q135 5 116 5Q98 5 75 0Z"  horiz-adv-x="547" vert-adv-y="1024"  />

      
      <glyph glyph-name="uni6f" unicode="&#x6f;" d="M273-9Q169-9 102.50 59Q36 127 36 236Q36 344 103.50 412.50Q171 481 273 481Q378 481 444 413Q510 345 510 236Q510 126 443 58.50Q376-9 273-9M273 21Q425 21 425 230Q425 451 272 451Q121 451 121 237Q121 21 273 21Z"  horiz-adv-x="546" vert-adv-y="1024"  />

      
      <glyph glyph-name="uni70" unicode="&#x70;" d="M77-273Q80-191 80 142Q80 365 75 472Q90 468 111 468Q134 468 154 472Q151 432 151 382Q210 483 319 483Q416 483 468.50 419.50Q521 356 521 235Q521 121 462.50 54.50Q404-12 310-12Q209-12 155 73L155-47Q155-53 160-273Q137-268 118-268Q100-268 77-273M149 235Q149 26 292 26Q361 26 398.50 80.50Q436 135 436 238Q436 336 398 388.50Q360 441 292 441Q226 441 187.50 387.50Q149 334 149 235Z"  horiz-adv-x="558" vert-adv-y="1024"  />

      
      <glyph glyph-name="uni71" unicode="&#x71;" d="M480-273Q458-268 439-268Q422-268 397-273L401 73Q348-12 242-12Q145-12 90 54.50Q35 121 35 241Q35 355 90 419Q145 483 242 483Q347 483 406 382Q406 432 403 472Q423 468 446 468Q467 468 482 472Q477 365 477 142Q477-190 480-273M407 236Q407 333 368.50 387Q330 441 265 441Q120 441 120 240Q120 138 158.50 81.50Q197 25 262 25Q407 25 407 236Z"  horiz-adv-x="558" vert-adv-y="1024"  />

      
      <glyph glyph-name="uni72" unicode="&#x72;" d="M74 1Q79 119 79 327Q79 418 74 472Q94 468 117 468Q140 468 159 472Q153 424 153 362Q207 477 278 477Q289 477 316 472Q311 446 311 396L303 391Q278 404 255 404Q199 404 174.50 355Q150 306 150 202Q150 75 155 0Q136 4 112 4Q94 4 74 1Z"  horiz-adv-x="328" vert-adv-y="1024"  />

      
      <glyph glyph-name="uni73" unicode="&#x73;" d="M48 104Q97 28 170 28Q215 28 241 52.50Q267 77 267 119Q267 179 188 201L142 214Q85 230 59.50 260Q34 290 34 343Q34 403 76 442Q118 481 187 481Q259 481 312 448Q297 417 291 385Q234 451 175 451Q137 451 113.50 427.50Q90 404 90 367Q90 305 166 283L234 263Q330 235 330 148Q330 80 281 35.50Q232-9 153-9Q75-9 24 27Q39 65 48 104Z"  horiz-adv-x="356" vert-adv-y="1024"  />

      
      <glyph glyph-name="uni74" unicode="&#x74;" d="M12 430Q14 448 14 456Q14 459 14 464Q13 470 13 472Q45 469 77 469L77 502Q77 534 75 586Q122 594 155 611Q152 547 152 532L152 466Q207 466 282 472Q279 457 279 439L279 431Q225 434 187 434Q162 434 151 433L149 383Q149 354 147 277Q145 200 145 151Q145 84 164 54.50Q183 25 229 25Q255 25 299 46L306 24Q255-10 197-10Q128-10 99 22.50Q70 55 70 127Q70 142 72.50 232.50Q75 323 75 399L75 433L64 433Q39 433 12 430Z"  horiz-adv-x="289" vert-adv-y="1024"  />

      
      <glyph glyph-name="uni75" unicode="&#x75;" d="M394-1L394 17Q394 32 392 80Q342-11 232-11Q75-11 75 154Q75 162 77.50 239.50Q80 317 80 387Q80 418 78 472Q95 468 118 468Q141 468 161 472Q146 330 146 190Q146 36 263 36Q346 36 378 108Q396 148 396 349Q396 412 391 472Q410 468 433 468Q455 468 472 472Q468 396 468 192Q468 76 471 0Q451 2 439 2Q417 2 394-1Z"  horiz-adv-x="549" vert-adv-y="1024"  />

      
      <glyph glyph-name="uni76" unicode="&#x76;" d="M199 0Q158 132 6 472Q26 468 51 468Q77 468 98 472Q131 349 245 93Q341 279 393 472Q408 468 425 468Q443 468 456 472Q294 113 258 0Q247 2 227 2Q208 2 199 0Z"  horiz-adv-x="457" vert-adv-y="1024"  />

      
      <glyph glyph-name="uni77" unicode="&#x77;" d="M182 0Q156 112 8 472Q28 468 52 468Q77 468 97 472Q126 355 222 106Q294 266 353 472Q368 469 383 469Q397 469 412 472Q478 226 537 107Q590 216 676 472Q698 470 707 470Q717 470 737 472Q577 112 547 0Q532 3 517 3Q503 3 488 0Q478 62 365 361Q273 140 239 0Q230 2 211 2Q192 2 182 0Z"  horiz-adv-x="739" vert-adv-y="1024"  />

      
      <glyph glyph-name="uni78" unicode="&#x78;" d="M5 0Q58 56 128 147L194 233L147 299Q70 408 16 472Q39 468 67 468Q95 468 118 472Q139 438 162 406L243 290L303 367Q360 440 376 472Q394 469 412 469Q431 469 449 472Q372 386 326 329L267 256L360 126Q378 101 457 0Q427 5 404 5Q381 5 353 0Q311 72 256 147L219 198L148 109Q104 54 78 0Q62 4 42 4Q22 4 5 0Z"  horiz-adv-x="470" vert-adv-y="1024"  />

      
      <glyph glyph-name="uni79" unicode="&#x79;" d="M75-273Q125-189 185-50L208 3L166 113Q136 191 10 472Q31 468 59 468Q86 468 107 472Q133 381 214 182L249 96L285 179Q361 355 397 472Q412 468 431 468Q449 468 464 472Q434 413 369 266L235-37Q162-202 144-273Q128-270 110-270Q93-270 75-273Z"  horiz-adv-x="467" vert-adv-y="1024"  />

      
      <glyph glyph-name="uni7a" unicode="&#x7a;" d="M-2 0L-2 21Q216 290 314 429L274 429Q165 429 51 416Q52 422 52 436Q52 446 50 470Q166 468 218 468Q334 468 421 472L421 452Q225 205 112 42Q317 45 416 57Q414 41 414 34Q414 18 417 0Q265 4 187 4Q81 4-2 0Z"  horiz-adv-x="450" vert-adv-y="1024"  />

      
      <glyph glyph-name="uni7b" unicode="&#x7b;" d="M417 669L399 669Q332 669 311 643Q290 617 290 545L290 427Q290 350 272 315Q251 275 194 259Q251 243 272 203Q290 168 290 91L290-27Q290-99 310-125Q330-151 395-151Q398-151 406-151Q413-150 417-150L417-202L394-202Q294-202 261-163Q230-127 230-22L230 97Q230 172 202.50 203Q175 234 107 234Q104 234 96 234Q89 233 85 233L85 286Q89 286 96 286Q104 285 107 285Q175 285 202.50 316Q230 347 230 422L230 540Q230 645 262.50 683Q295 721 394 721L417 721L417 669Z"  horiz-adv-x="500" vert-adv-y="1024"  />

      
      <glyph glyph-name="uni7c" unicode="&#x7c;" d="M277 764L277-236L224-236L224 764L277 764Z"  horiz-adv-x="500" vert-adv-y="1024"  />

      
      <glyph glyph-name="uni7d" unicode="&#x7d;" d="M271 540L271 422Q271 347 298.50 316Q326 285 394 285Q397 285 405 286Q412 286 416 286L416 233Q412 233 405 234Q397 234 394 234Q326 234 298.50 203Q271 172 271 97L271-22Q271-127 240-163Q207-202 107-202L84-202L84-150L103-150Q169-150 190-124.50Q211-99 211-27L211 91Q211 168 229 203Q249 243 307 259Q249 275 229 315Q211 350 211 427L211 545Q211 618 192 642Q171 670 106 670Q103 670 95 670Q88 669 84 669L84 721L107 721Q206 721 240 682Q271 645 271 540Z"  horiz-adv-x="500" vert-adv-y="1024"  />

      
      <glyph glyph-name="uni7e" unicode="&#x7e;" d="M747 311Q649 241 558 241Q510 241 417 274Q321 308 276 308Q198 308 87 230L87 285Q190 356 276 356Q325 356 417 323Q515 288 558 288Q638 288 747 366L747 311Z"  horiz-adv-x="833" vert-adv-y="1024"  />

      
      <glyph glyph-name="unic4" unicode="&#xc4;" d="M-4 1Q173 388 305 696L324 696Q464 346 614 0Q587 5 565 5Q542 5 514 0Q477 113 429 227L412 267Q371 269 289 269Q206 269 165 267Q118 160 62 0Q45 5 29 5Q18 5-4 1M182 311Q188 311 213 311Q238 310 258 310Q273 310 318 311Q363 311 392 311L375 355Q362 389 289 559L182 311M176 825Q176 845 190.50 859.50Q205 874 224 874Q244 874 258.50 859.50Q273 845 273 825Q273 804 258.50 790Q244 776 224 776Q204 776 190 790Q176 804 176 825M347 825Q347 845 362 859.50Q377 874 396 874Q415 874 429.50 859.50Q444 845 444 825Q444 804 430 790Q416 776 396 776Q376 776 361.50 790Q347 804 347 825Z"  horiz-adv-x="619" vert-adv-y="1024"  />

      
      <glyph glyph-name="unic5" unicode="&#xc5;" d="M-4 1Q173 388 305 696L324 696Q464 346 614 0Q587 5 565 5Q542 5 514 0Q477 113 429 227L412 267Q371 269 289 269Q206 269 165 267Q118 160 62 0Q45 5 29 5Q18 5-4 1M182 311Q188 311 213 311Q238 310 258 310Q273 310 318 311Q363 311 392 311L375 355Q362 389 289 559L182 311M320 934Q285 934 263.50 909Q242 884 242 841Q242 759 316 759Q392 759 392 851Q392 890 372.50 912Q353 934 320 934M314 728Q263 728 230.50 760Q198 792 198 841Q198 893 233.50 928Q269 963 320 963Q373 963 405 932Q437 901 437 850Q437 798 401.50 763Q366 728 314 728Z"  horiz-adv-x="619" vert-adv-y="1024"  />

      
      <glyph glyph-name="unic7" unicode="&#xc7;" d="M614 43Q538-13 390-13Q224-13 132.50 79.50Q41 172 41 341Q41 502 141.50 599Q242 696 412 696Q531 696 627 648Q611 597 611 552Q542 659 409 659Q284 659 214 575.50Q144 492 144 340Q144 192 213.50 108.50Q283 25 402 25Q517 25 620 109L614 43M251-183L266-150Q331-178 378-178Q437-178 437-133Q437-89 380-89Q368-89 351-92L351 0L382 0L382-55Q397-52 412-52Q453-52 477-73Q501-94 501-129Q501-214 397-214Q335-214 251-183Z"  horiz-adv-x="656" vert-adv-y="1024"  />

      
      <glyph glyph-name="unic9" unicode="&#xc9;" d="M89 0Q97 123 97 349Q97 553 90 683Q147 680 212 680Q279 680 441 683Q441 679 441 669Q440 659 440 654Q440 650 441 640Q441 630 441 625Q327 635 204 635L181 635Q179 516 179 424L179 384L197 384Q289 384 414 392Q412 372 412 361Q412 351 414 333Q370 341 225 341L178 341L178 293Q178 249 180 49L205 49Q295 49 445 60Q445 55 445 45Q444 35 444 30Q444 25 445 15Q445 5 445 0Q391 2 274 2Q153 2 89 0M179 750L320 896Q348 925 367 925Q403 925 403 890Q403 869 373 850L212 750L179 750Z"  horiz-adv-x="495" vert-adv-y="1024"  />

      
      <glyph glyph-name="unid1" unicode="&#xd1;" d="M82 0Q95 270 95 590L95 696L114 696Q323 454 605 170Q607 238 607 258Q607 503 599 683Q621 679 631 679Q642 679 662 683Q654 455 654 214Q654 129 656-13L643-13Q559 92 387 273L145 528Q143 440 143 397Q143 244 150 0Q132 5 116 5Q102 5 82 0M513 895Q494 795 418 795Q401 795 382 800L329 814Q318 817 305 817Q270 817 258 773L233 773Q251 876 329 876Q345 876 360 872L414 858Q433 853 441 853Q474 853 487 895L513 895Z"  horiz-adv-x="746" vert-adv-y="1024"  />

      
      <glyph glyph-name="unid6" unicode="&#xd6;" d="M410-14Q239-14 140 81Q41 176 41 340Q41 502 141.50 598.50Q242 695 410 695Q580 695 679 599Q778 503 778 340Q778 181 677 83.50Q576-14 410-14M410 24Q539 24 609 106Q679 188 679 341Q679 496 610 577Q541 658 410 658Q281 658 211 574.50Q141 491 141 337Q141 186 210.50 105Q280 24 410 24M276 825Q276 845 290.50 859.50Q305 874 324 874Q344 874 358.50 859.50Q373 845 373 825Q373 804 358.50 790Q344 776 324 776Q304 776 290 790Q276 804 276 825M447 825Q447 845 462 859.50Q477 874 496 874Q515 874 529.50 859.50Q544 845 544 825Q544 804 530 790Q516 776 496 776Q476 776 461.50 790Q447 804 447 825Z"  horiz-adv-x="820" vert-adv-y="1024"  />

      
      <glyph glyph-name="unidc" unicode="&#xdc;" d="M91 683Q111 679 135 679Q162 679 182 684L178 320Q178 244 185 205Q195 141 228 101Q284 33 392 33Q501 33 557 103Q589 143 599 213Q606 260 606 370Q606 539 602 683Q617 679 633 679Q651 679 666 683Q661 554 661 501L661 475Q661 312 656 249Q647 154 620 106Q551-13 376-13Q227-13 159 59.50Q91 132 91 288Q91 294 92.50 363Q94 432 94 494Q94 575 91 683M251 825Q251 845 265.50 859.50Q280 874 299 874Q319 874 333.50 859.50Q348 845 348 825Q348 804 333.50 790Q319 776 299 776Q279 776 265 790Q251 804 251 825M422 825Q422 845 437 859.50Q452 874 471 874Q490 874 504.50 859.50Q519 845 519 825Q519 804 505 790Q491 776 471 776Q451 776 436.50 790Q422 804 422 825Z"  horiz-adv-x="750" vert-adv-y="1024"  />

      
      <glyph glyph-name="unie1" unicode="&#xe1;" d="M322 58Q258-9 173-9Q35-9 35 114Q35 219 151 244Q206 255 262 266Q309 276 325 290L325 311Q325 378 299.50 410Q274 442 214 442Q132 442 85 371L77 371L79 424Q146 480 240 480Q324 480 361 439.50Q398 399 398 312L398 300L394 101Q394 67 399 55Q408 35 438 35Q449 35 455 36L459 16Q405 0 377 0Q331 0 322 58M323 248Q205 228 166 208Q117 183 117 127Q117 32 206 32Q262 32 306 76Q323 93 323 119L323 248M155 536L296 682Q324 711 343 711Q379 711 379 676Q379 655 349 636L188 536L155 536Z"  horiz-adv-x="481" vert-adv-y="1024"  />

      
      <glyph glyph-name="unie0" unicode="&#xe0;" d="M322 58Q258-9 173-9Q35-9 35 114Q35 219 151 244Q206 255 262 266Q309 276 325 290L325 311Q325 378 299.50 410Q274 442 214 442Q132 442 85 371L77 371L79 424Q146 480 240 480Q324 480 361 439.50Q398 399 398 312L398 300L394 101Q394 67 399 55Q408 35 438 35Q449 35 455 36L459 16Q405 0 377 0Q331 0 322 58M323 248Q205 228 166 208Q117 183 117 127Q117 32 206 32Q262 32 306 76Q323 93 323 119L323 248M327 536L294 536L133 636Q103 655 103 676Q103 711 139 711Q158 711 186 682L327 536Z"  horiz-adv-x="481" vert-adv-y="1024"  />

      
      <glyph glyph-name="unie2" unicode="&#xe2;" d="M322 58Q258-9 173-9Q35-9 35 114Q35 219 151 244Q206 255 262 266Q309 276 325 290L325 311Q325 378 299.50 410Q274 442 214 442Q132 442 85 371L77 371L79 424Q146 480 240 480Q324 480 361 439.50Q398 399 398 312L398 300L394 101Q394 67 399 55Q408 35 438 35Q449 35 455 36L459 16Q405 0 377 0Q331 0 322 58M323 248Q205 228 166 208Q117 183 117 127Q117 32 206 32Q262 32 306 76Q323 93 323 119L323 248M99 536L212 706L270 706L383 536L355 536L241 638L127 536L99 536Z"  horiz-adv-x="481" vert-adv-y="1024"  />

      
      <glyph glyph-name="unie4" unicode="&#xe4;" d="M322 58Q258-9 173-9Q35-9 35 114Q35 219 151 244Q206 255 262 266Q309 276 325 290L325 311Q325 378 299.50 410Q274 442 214 442Q132 442 85 371L77 371L79 424Q146 480 240 480Q324 480 361 439.50Q398 399 398 312L398 300L394 101Q394 67 399 55Q408 35 438 35Q449 35 455 36L459 16Q405 0 377 0Q331 0 322 58M323 248Q205 228 166 208Q117 183 117 127Q117 32 206 32Q262 32 306 76Q323 93 323 119L323 248M107 611Q107 631 121.50 645.50Q136 660 155 660Q175 660 189.50 645.50Q204 631 204 611Q204 590 189.50 576Q175 562 155 562Q135 562 121 576Q107 590 107 611M278 611Q278 631 293 645.50Q308 660 327 660Q346 660 360.50 645.50Q375 631 375 611Q375 590 361 576Q347 562 327 562Q307 562 292.50 576Q278 590 278 611Z"  horiz-adv-x="481" vert-adv-y="1024"  />

      
      <glyph glyph-name="unie3" unicode="&#xe3;" d="M322 58Q258-9 173-9Q35-9 35 114Q35 219 151 244Q206 255 262 266Q309 276 325 290L325 311Q325 378 299.50 410Q274 442 214 442Q132 442 85 371L77 371L79 424Q146 480 240 480Q324 480 361 439.50Q398 399 398 312L398 300L394 101Q394 67 399 55Q408 35 438 35Q449 35 455 36L459 16Q405 0 377 0Q331 0 322 58M323 248Q205 228 166 208Q117 183 117 127Q117 32 206 32Q262 32 306 76Q323 93 323 119L323 248M381 681Q362 581 286 581Q269 581 250 586L197 600Q186 603 173 603Q138 603 126 559L101 559Q119 662 197 662Q213 662 228 658L282 644Q301 639 309 639Q342 639 355 681L381 681Z"  horiz-adv-x="481" vert-adv-y="1024"  />

      
      <glyph glyph-name="unie5" unicode="&#xe5;" d="M322 58Q258-9 173-9Q35-9 35 114Q35 219 151 244Q206 255 262 266Q309 276 325 290L325 311Q325 378 299.50 410Q274 442 214 442Q132 442 85 371L77 371L79 424Q146 480 240 480Q324 480 361 439.50Q398 399 398 312L398 300L394 101Q394 67 399 55Q408 35 438 35Q449 35 455 36L459 16Q405 0 377 0Q331 0 322 58M323 248Q205 228 166 208Q117 183 117 127Q117 32 206 32Q262 32 306 76Q323 93 323 119L323 248M240 514Q188 514 155 546.50Q122 579 122 629Q122 681 158.50 717.50Q195 754 247 754Q301 754 333.50 722Q366 690 366 639Q366 586 329.50 550Q293 514 240 514M246 724Q210 724 188.50 698.50Q167 673 167 627Q167 545 241 545Q320 545 320 640Q320 724 246 724Z"  horiz-adv-x="481" vert-adv-y="1024"  />

      
      <glyph glyph-name="unie7" unicode="&#xe7;" d="M440 40Q376-10 269-10Q164-10 99.50 57Q35 124 35 235Q35 347 103 414Q171 481 283 481Q369 481 446 441Q430 404 419 355Q377 449 283 449Q204 449 160 393.50Q116 338 116 236Q116 138 163.50 81.50Q211 25 290 25Q370 25 441 97Q439 69 439 60Q439 46 440 40M143-183L158-150Q223-178 270-178Q329-178 329-133Q329-89 272-89Q260-89 243-92L243 0L274 0L274-55Q289-52 304-52Q345-52 369-73Q393-94 393-129Q393-214 289-214Q227-214 143-183Z"  horiz-adv-x="463" vert-adv-y="1024"  />

      
      <glyph glyph-name="unie9" unicode="&#xe9;" d="M124 277L387 277L387 294Q387 368 353.50 409.50Q320 451 262 451Q205 451 166 405Q127 356 124 277M442 48Q364-9 272-9Q167-9 101.50 59Q36 127 36 235Q36 347 99 414.50Q162 482 266 482Q362 482 414.50 425.50Q467 369 467 264Q467 261 467 253Q466 246 466 242L122 242L122 239Q122 31 290 31Q376 31 444 98Q442 72 442 60L442 48M167 536L308 682Q336 711 355 711Q391 711 391 676Q391 655 361 636L200 536L167 536Z"  horiz-adv-x="506" vert-adv-y="1024"  />

      
      <glyph glyph-name="unie8" unicode="&#xe8;" d="M124 277L387 277L387 294Q387 368 353.50 409.50Q320 451 262 451Q205 451 166 405Q127 356 124 277M442 48Q364-9 272-9Q167-9 101.50 59Q36 127 36 235Q36 347 99 414.50Q162 482 266 482Q362 482 414.50 425.50Q467 369 467 264Q467 261 467 253Q466 246 466 242L122 242L122 239Q122 31 290 31Q376 31 444 98Q442 72 442 60L442 48M339 536L306 536L145 636Q115 655 115 676Q115 711 151 711Q170 711 198 682L339 536Z"  horiz-adv-x="506" vert-adv-y="1024"  />

      
      <glyph glyph-name="uniea" unicode="&#xea;" d="M124 277L387 277L387 294Q387 368 353.50 409.50Q320 451 262 451Q205 451 166 405Q127 356 124 277M442 48Q364-9 272-9Q167-9 101.50 59Q36 127 36 235Q36 347 99 414.50Q162 482 266 482Q362 482 414.50 425.50Q467 369 467 264Q467 261 467 253Q466 246 466 242L122 242L122 239Q122 31 290 31Q376 31 444 98Q442 72 442 60L442 48M111 536L224 706L282 706L395 536L367 536L253 638L139 536L111 536Z"  horiz-adv-x="506" vert-adv-y="1024"  />

      
      <glyph glyph-name="unieb" unicode="&#xeb;" d="M124 277L387 277L387 294Q387 368 353.50 409.50Q320 451 262 451Q205 451 166 405Q127 356 124 277M442 48Q364-9 272-9Q167-9 101.50 59Q36 127 36 235Q36 347 99 414.50Q162 482 266 482Q362 482 414.50 425.50Q467 369 467 264Q467 261 467 253Q466 246 466 242L122 242L122 239Q122 31 290 31Q376 31 444 98Q442 72 442 60L442 48M119 611Q119 631 133.50 645.50Q148 660 167 660Q187 660 201.50 645.50Q216 631 216 611Q216 590 201.50 576Q187 562 167 562Q147 562 133 576Q119 590 119 611M290 611Q290 631 305 645.50Q320 660 339 660Q358 660 372.50 645.50Q387 631 387 611Q387 590 373 576Q359 562 339 562Q319 562 304.50 576Q290 590 290 611Z"  horiz-adv-x="506" vert-adv-y="1024"  />

      
      <glyph glyph-name="unied" unicode="&#xed;" d="M83 0Q88 137 88 248Q88 350 83 472Q102 468 124 468Q148 468 165 472Q160 349 160 248Q160 137 165 0Q143 5 124 5Q106 5 83 0M38 536L179 682Q207 711 226 711Q262 711 262 676Q262 655 232 636L71 536L38 536Z"  horiz-adv-x="248" vert-adv-y="1024"  />

      
      <glyph glyph-name="uniec" unicode="&#xec;" d="M83 0Q88 137 88 248Q88 350 83 472Q102 468 124 468Q148 468 165 472Q160 349 160 248Q160 137 165 0Q143 5 124 5Q106 5 83 0M210 536L177 536L16 636Q-14 655-14 676Q-14 711 22 711Q41 711 69 682L210 536Z"  horiz-adv-x="248" vert-adv-y="1024"  />

      
      <glyph glyph-name="uniee" unicode="&#xee;" d="M83 0Q88 137 88 248Q88 350 83 472Q102 468 124 468Q148 468 165 472Q160 349 160 248Q160 137 165 0Q143 5 124 5Q106 5 83 0M-18 536L95 706L153 706L266 536L238 536L124 638L10 536L-18 536Z"  horiz-adv-x="248" vert-adv-y="1024"  />

      
      <glyph glyph-name="unief" unicode="&#xef;" d="M83 0Q88 137 88 248Q88 350 83 472Q102 468 124 468Q148 468 165 472Q160 349 160 248Q160 137 165 0Q143 5 124 5Q106 5 83 0M-10 611Q-10 631 4.50 645.50Q19 660 38 660Q58 660 72.50 645.50Q87 631 87 611Q87 590 72.50 576Q58 562 38 562Q18 562 4 576Q-10 590-10 611M161 611Q161 631 176 645.50Q191 660 210 660Q229 660 243.50 645.50Q258 631 258 611Q258 590 244 576Q230 562 210 562Q190 562 175.50 576Q161 590 161 611Z"  horiz-adv-x="248" vert-adv-y="1024"  />

      
      <glyph glyph-name="unif1" unicode="&#xf1;" d="M75 0Q79 56 79 174L79 245Q79 401 75 472Q94 468 116 468Q139 468 155 472Q153 436 153 421Q153 415 154 403Q154 391 154 385Q211 482 311 482Q471 482 471 303Q471 278 470 229.50Q469 181 469 158Q469 84 472 0Q449 5 431 5Q413 5 390 0Q396 105 396 283Q396 431 282 431Q223 431 189 388Q155 345 155 232L155 187Q155 51 158 0Q135 5 116 5Q98 5 75 0M414 681Q395 581 319 581Q302 581 283 586L230 600Q219 603 206 603Q171 603 159 559L134 559Q152 662 230 662Q246 662 261 658L315 644Q334 639 342 639Q375 639 388 681L414 681Z"  horiz-adv-x="547" vert-adv-y="1024"  />

      
      <glyph glyph-name="unif3" unicode="&#xf3;" d="M273-9Q169-9 102.50 59Q36 127 36 236Q36 344 103.50 412.50Q171 481 273 481Q378 481 444 413Q510 345 510 236Q510 126 443 58.50Q376-9 273-9M273 21Q425 21 425 230Q425 451 272 451Q121 451 121 237Q121 21 273 21M187 536L328 682Q356 711 375 711Q411 711 411 676Q411 655 381 636L220 536L187 536Z"  horiz-adv-x="546" vert-adv-y="1024"  />

      
      <glyph glyph-name="unif2" unicode="&#xf2;" d="M273-9Q169-9 102.50 59Q36 127 36 236Q36 344 103.50 412.50Q171 481 273 481Q378 481 444 413Q510 345 510 236Q510 126 443 58.50Q376-9 273-9M273 21Q425 21 425 230Q425 451 272 451Q121 451 121 237Q121 21 273 21M359 536L326 536L165 636Q135 655 135 676Q135 711 171 711Q190 711 218 682L359 536Z"  horiz-adv-x="546" vert-adv-y="1024"  />

      
      <glyph glyph-name="unif4" unicode="&#xf4;" d="M273-9Q169-9 102.50 59Q36 127 36 236Q36 344 103.50 412.50Q171 481 273 481Q378 481 444 413Q510 345 510 236Q510 126 443 58.50Q376-9 273-9M273 21Q425 21 425 230Q425 451 272 451Q121 451 121 237Q121 21 273 21M131 536L244 706L302 706L415 536L387 536L273 638L159 536L131 536Z"  horiz-adv-x="546" vert-adv-y="1024"  />

      
      <glyph glyph-name="unif6" unicode="&#xf6;" d="M273-9Q169-9 102.50 59Q36 127 36 236Q36 344 103.50 412.50Q171 481 273 481Q378 481 444 413Q510 345 510 236Q510 126 443 58.50Q376-9 273-9M273 21Q425 21 425 230Q425 451 272 451Q121 451 121 237Q121 21 273 21M139 611Q139 631 153.50 645.50Q168 660 187 660Q207 660 221.50 645.50Q236 631 236 611Q236 590 221.50 576Q207 562 187 562Q167 562 153 576Q139 590 139 611M310 611Q310 631 325 645.50Q340 660 359 660Q378 660 392.50 645.50Q407 631 407 611Q407 590 393 576Q379 562 359 562Q339 562 324.50 576Q310 590 310 611Z"  horiz-adv-x="546" vert-adv-y="1024"  />

      
      <glyph glyph-name="unif5" unicode="&#xf5;" d="M273-9Q169-9 102.50 59Q36 127 36 236Q36 344 103.50 412.50Q171 481 273 481Q378 481 444 413Q510 345 510 236Q510 126 443 58.50Q376-9 273-9M273 21Q425 21 425 230Q425 451 272 451Q121 451 121 237Q121 21 273 21M413 681Q394 581 318 581Q301 581 282 586L229 600Q218 603 205 603Q170 603 158 559L133 559Q151 662 229 662Q245 662 260 658L314 644Q333 639 341 639Q374 639 387 681L413 681Z"  horiz-adv-x="546" vert-adv-y="1024"  />

      
      <glyph glyph-name="unifa" unicode="&#xfa;" d="M394-1L394 17Q394 32 392 80Q342-11 232-11Q75-11 75 154Q75 162 77.50 239.50Q80 317 80 387Q80 418 78 472Q95 468 118 468Q141 468 161 472Q146 330 146 190Q146 36 263 36Q346 36 378 108Q396 148 396 349Q396 412 391 472Q410 468 433 468Q455 468 472 472Q468 396 468 192Q468 76 471 0Q451 2 439 2Q417 2 394-1M189 536L330 682Q358 711 377 711Q413 711 413 676Q413 655 383 636L222 536L189 536Z"  horiz-adv-x="549" vert-adv-y="1024"  />

      
      <glyph glyph-name="unif9" unicode="&#xf9;" d="M394-1L394 17Q394 32 392 80Q342-11 232-11Q75-11 75 154Q75 162 77.50 239.50Q80 317 80 387Q80 418 78 472Q95 468 118 468Q141 468 161 472Q146 330 146 190Q146 36 263 36Q346 36 378 108Q396 148 396 349Q396 412 391 472Q410 468 433 468Q455 468 472 472Q468 396 468 192Q468 76 471 0Q451 2 439 2Q417 2 394-1M361 536L328 536L167 636Q137 655 137 676Q137 711 173 711Q192 711 220 682L361 536Z"  horiz-adv-x="549" vert-adv-y="1024"  />

      
      <glyph glyph-name="unifb" unicode="&#xfb;" d="M394-1L394 17Q394 32 392 80Q342-11 232-11Q75-11 75 154Q75 162 77.50 239.50Q80 317 80 387Q80 418 78 472Q95 468 118 468Q141 468 161 472Q146 330 146 190Q146 36 263 36Q346 36 378 108Q396 148 396 349Q396 412 391 472Q410 468 433 468Q455 468 472 472Q468 396 468 192Q468 76 471 0Q451 2 439 2Q417 2 394-1M133 536L246 706L304 706L417 536L389 536L275 638L161 536L133 536Z"  horiz-adv-x="549" vert-adv-y="1024"  />

      
      <glyph glyph-name="unifc" unicode="&#xfc;" d="M394-1L394 17Q394 32 392 80Q342-11 232-11Q75-11 75 154Q75 162 77.50 239.50Q80 317 80 387Q80 418 78 472Q95 468 118 468Q141 468 161 472Q146 330 146 190Q146 36 263 36Q346 36 378 108Q396 148 396 349Q396 412 391 472Q410 468 433 468Q455 468 472 472Q468 396 468 192Q468 76 471 0Q451 2 439 2Q417 2 394-1M141 611Q141 631 155.50 645.50Q170 660 189 660Q209 660 223.50 645.50Q238 631 238 611Q238 590 223.50 576Q209 562 189 562Q169 562 155 576Q141 590 141 611M312 611Q312 631 327 645.50Q342 660 361 660Q380 660 394.50 645.50Q409 631 409 611Q409 590 395 576Q381 562 361 562Q341 562 326.50 576Q312 590 312 611Z"  horiz-adv-x="549" vert-adv-y="1024"  />

      
      <glyph glyph-name="uni2020" unicode="&#x2020;" d="M281 683Q275 595 275 448L306 448Q389 448 446 455L446 400Q409 406 314 406L275 406Q274 378 274 299Q274 190 281 0L213 0Q220 190 220 299Q220 378 219 406L180 406Q86 406 48 400L48 455Q110 448 189 448L219 448Q219 572 213 683L281 683Z"  horiz-adv-x="494" vert-adv-y="1024"  />

      
      <glyph glyph-name="unib0" unicode="&#xb0;" d="M165 709Q221 709 260.50 669Q300 629 300 573Q300 517 260.50 477Q221 437 164 437Q107 437 68 476.50Q29 516 29 573Q29 630 69 669.50Q109 709 165 709M266 573Q266 615 236.50 645Q207 675 165 675Q123 675 93 645Q63 615 63 573Q63 531 93 501.50Q123 472 165 472Q208 472 237 501.50Q266 531 266 573Z"  horiz-adv-x="329" vert-adv-y="1024"  />

      
      <glyph glyph-name="unia2" unicode="&#xa2;" d="M280 37L280 457Q214 447 177.50 392Q141 337 141 245Q141 68 280 37M465 50Q399 0 315 0Q315-40 319-105L276-102Q278-63 280 0Q177 8 119 73Q61 138 61 245Q61 349 119 413.50Q177 478 280 488Q280 537 277 588L320 588Q318 554 315 489Q399 487 471 450Q454 412 444 365Q403 456 315 458L315 34L321 34Q393 34 466 107Q464 79 464 70Q464 56 465 50Z"  horiz-adv-x="549" vert-adv-y="1024"  />

      
      <glyph glyph-name="unia3" unicode="&#xa3;" d="M51 0Q54 17 54 32Q54 49 51 65Q137 65 167 101Q197 137 197 231Q197 286 193 329Q148 327 93 322L93 365Q121 361 165 361L190 361Q184 429 184 450Q184 554 236 610Q288 666 382 666Q461 666 506 614L458 555Q444 633 367 633Q257 633 257 487Q257 455 265 361Q275 360 296 360Q341 360 387 366L387 325Q327 331 287 331L270 331L270 308Q270 144 174 69Q351 71 519 79Q518 67 518 41Q518 14 519 0Q389 6 280 6Q171 6 51 0Z"  horiz-adv-x="549" vert-adv-y="1024"  />

      
      <glyph glyph-name="unia7" unicode="&#xa7;" d="M67-83Q77-46 83 5Q141-77 233-77Q290-77 327-44Q364-11 364 38Q364 76 338 100Q316 121 262 142L189 170Q114 199 81.50 230.50Q49 262 49 312Q49 383 123 442Q94 477 94 531Q94 604 142 650Q190 696 269 696Q361 696 408 649Q390 622 373 585Q336 665 256 665Q207 665 175.50 635Q144 605 144 559Q144 522 168 499Q189 478 242 456L319 424Q385 397 412 369Q443 338 443 288Q443 228 378 165Q417 135 417 69Q417-13 358.50-65.50Q300-118 206-118Q115-118 67-83M362 180Q392 224 392 253Q392 285 365 308Q344 326 287 353L216 386Q193 396 141 427Q99 397 99 349Q99 292 226 240L289 214Q312 205 362 180Z"  horiz-adv-x="494" vert-adv-y="1024"  />

      
      <glyph glyph-name="uni2022" unicode="&#x2022;" d="M150 372Q150 432 192.50 474Q235 516 295 516Q354 516 396.50 474Q439 432 439 372Q439 313 396.50 270Q354 227 294 227Q234 227 192 269.50Q150 312 150 372Z"  horiz-adv-x="590" vert-adv-y="1024"  />

      
      <glyph glyph-name="unib6" unicode="&#xb6;" d="M459 688L397 688L397 0L357 0L357 688L265 688L265 0L225 0L225 382Q140 386 90.50 432Q41 478 41 552Q41 628 93 675Q145 722 233 722L459 722L459 688Z"  horiz-adv-x="500" vert-adv-y="1024"  />

      
      <glyph glyph-name="unidf" unicode="&#xdf;" d="M71 0Q75 52 75 208L74 525Q74 631 127 690.50Q180 750 273 750Q342 750 380.50 720Q419 690 419 639Q419 590 377 542L338 497Q303 457 303 425Q303 390 363 348Q450 288 470 268Q510 228 510 177Q510 102 451 46Q389-11 302-11Q258-11 215 12Q230 48 238 88Q288 32 341 32Q387 32 416 60Q445 88 445 132Q445 171 416 206Q391 236 333 275Q275 314 262 327Q234 355 234 391Q234 430 284 483Q326 528 342 554Q365 590 365 626Q365 671 339 698.50Q313 726 270 726Q187 726 164 641Q147 580 147 369L147 333Q147 105 154 0Q142 1 116 1Q87 1 71 0Z"  horiz-adv-x="545" vert-adv-y="1024"  />

      
      <glyph glyph-name="uniae" unicode="&#xae;" d="M416 711Q567 711 670.50 606.50Q774 502 774 353Q774 203 671 102Q562-5 416-5Q269-5 164 101Q59 207 59 353Q59 499 166 608Q267 711 416 711M735 352Q735 487 644 578Q550 672 416 672Q285 672 194 580Q98 483 98 353Q98 223 192 129Q286 35 416 35Q547 35 644 130Q735 219 735 352M427 565Q597 565 597 451Q597 408 571 378.50Q545 349 500 343L592 153L521 153L434 334L338 334L338 153L276 153L276 565L427 565M415 523L338 523L338 375L415 375Q478 375 505.50 390.50Q533 406 533 447Q533 523 415 523Z"  horiz-adv-x="833" vert-adv-y="1024"  />

      
      <glyph glyph-name="unia9" unicode="&#xa9;" d="M416 711Q566 711 670 607Q774 503 774 353Q774 203 671 102Q562-5 416-5Q270-5 164.50 100.50Q59 206 59 353Q59 499 166 608Q267 711 416 711M735 353Q735 486 642 579Q549 672 416 672Q284 672 193 580Q98 483 98 353Q98 223 192 129Q286 35 416 35Q547 35 644 130Q735 220 735 353M524 447Q505 529 418 529Q359 529 325.50 483Q292 437 292 352Q292 270 326 224.50Q360 179 418 179Q462 179 492 203.50Q522 228 530 271L586 271Q581 210 533 171Q485 132 415 132Q329 132 279 191Q229 250 229 355Q229 455 282 514.50Q335 574 420 574Q486 574 530.50 539Q575 504 581 447L524 447Z"  horiz-adv-x="833" vert-adv-y="1024"  />

      
      <glyph glyph-name="uni2122" unicode="&#x2122;" d="M339 710L339 682L255 682L255 451L215 451L215 682L129 682L129 710L339 710M458 710L539 504L615 710L672 710L672 451L637 451L637 679L551 451L527 451L436 679L436 451L401 451L401 710L458 710Z"  horiz-adv-x="833" vert-adv-y="1024"  />

      
      <glyph glyph-name="unib4" unicode="&#xb4;" d="M164 536L305 682Q333 711 352 711Q388 711 388 676Q388 655 358 636L197 536L164 536Z"  horiz-adv-x="500" vert-adv-y="1024"  />

      
      <glyph glyph-name="unia8" unicode="&#xa8;" d="M116 611Q116 631 130.50 645.50Q145 660 164 660Q184 660 198.50 645.50Q213 631 213 611Q213 590 198.50 576Q184 562 164 562Q144 562 130 576Q116 590 116 611M287 611Q287 631 302 645.50Q317 660 336 660Q355 660 369.50 645.50Q384 631 384 611Q384 590 370 576Q356 562 336 562Q316 562 301.50 576Q287 590 287 611Z"  horiz-adv-x="500" vert-adv-y="1024"  />

      
      <glyph glyph-name="unic6" unicode="&#xc6;" d="M214 297Q280 295 314 295Q348 295 416 297L416 619Q251 373 214 297M408 0Q416 107 416 253Q381 255 306 255Q228 255 187 253L165 219Q71 74 48 0L-29 0Q103 202 406 683Q459 680 532 680Q602 680 740 683Q740 679 740 669Q739 659 739 654Q739 650 740 640Q740 630 740 625Q633 635 518 635L497 635L494 384L511 384Q598 384 715 392Q714 383 714 364Q714 344 715 333Q674 341 538 341L494 341L494 293Q494 249 496 49L519 49Q603 49 745 60Q745 55 745 45Q744 35 744 30Q744 25 745 15Q745 5 745 0Q604 3 549 3Q473 3 408 0Z"  horiz-adv-x="782" vert-adv-y="1024"  />

      
      <glyph glyph-name="unid8" unicode="&#xd8;" d="M141 79Q41 182 41 340Q41 502 141.50 598.50Q242 695 409 695Q544 695 634 633Q680 680 720 735Q737 714 761 701Q724 665 672 604Q778 507 778 340Q778 179 676 82.50Q574-14 400-14Q267-14 175 51Q120-6 79-64Q66-40 41-28Q95 26 141 79M191 130L599 587Q534 658 409 658Q280 658 210 574Q140 490 140 333Q140 215 191 130M623 556L213 100Q281 24 409 24Q538 24 608 106Q678 188 678 341Q678 476 623 556Z"  horiz-adv-x="820" vert-adv-y="1024"  />

      
      <glyph glyph-name="unib1" unicode="&#xb1;" d="M441 571L441 401L709 401L709 353L441 353L441 183L393 183L393 353L124 353L124 401L393 401L393 571L441 571M709 73L709 25L124 25L124 73L709 73Z"  horiz-adv-x="833" vert-adv-y="1024"  />

      
      <glyph glyph-name="unia5" unicode="&#xa5;" d="M305 228Q326 227 368 227Q429 227 502 232L502 188Q448 191 305 191L305 158Q305 87 310 0Q289 4 272 4Q256 4 233 0Q237 68 237 191L185 191Q109 191 46 188L46 232Q144 228 201 228L237 228L237 313Q130 313 46 310L46 354Q148 350 213 350Q157 445 33 651Q65 643 80 643Q95 643 126 650Q185 507 285 360Q377 506 439 651Q467 646 473 646Q486 646 514 651Q413 502 325 350Q426 350 502 354L502 310Q487 310 305 313L305 228Z"  horiz-adv-x="549" vert-adv-y="1024"  />

      
      <glyph glyph-name="uni03BC" unicode="&#x03BC;" d="M168 520L107 231Q99 193 99 163Q99 44 209 44Q335 44 379 248L438 520L506 520L426 144Q415 92 415 79Q415 47 448 47Q456 47 466 48L456-6Q437-11 414-11Q347-11 347 60L347 67Q304-12 201-12Q109-12 70 64L14-208L-54-208L100 520L168 520Z"  horiz-adv-x="542" vert-adv-y="1024"  />

      
      <glyph glyph-name="uniaa" unicode="&#xaa;" d="M303 564L300 423Q300 401 304 394Q310 382 330 382Q332 382 337 383Q342 383 345 383L350 363Q302 351 283 351Q244 351 238 387Q190 345 130 345Q22 345 22 434Q22 511 111 529Q153 536 196 544Q230 550 239 559L239 572Q239 660 161 660Q99 660 66 610L53 610L55 653Q107 694 180 694Q304 694 304 585Q304 585 304 578Q303 570 303 564M238 523Q153 510 127 497Q92 481 92 444Q92 381 154 381Q186 381 212 398Q238 415 238 441L238 523M45 282L325 282L325 232L45 232L45 282Z"  horiz-adv-x="361" vert-adv-y="1024"  />

      
      <glyph glyph-name="uniba" unicode="&#xba;" d="M205 695Q286 695 336.50 646Q387 597 387 519Q387 441 336 392.50Q285 344 205 344Q125 344 73.50 393Q22 442 22 519Q22 596 74 645.50Q126 695 205 695M204 666Q95 666 95 520Q95 372 205 372Q314 372 314 520Q314 666 204 666M49 282L360 282L360 232L49 232L49 282Z"  horiz-adv-x="409" vert-adv-y="1024"  />

      
      <glyph glyph-name="unie6" unicode="&#xe6;" d="M342 108Q306-11 169-11Q105-11 68.50 22.50Q32 56 32 114Q32 219 148 244Q203 255 259 266Q306 276 322 290L322 311Q322 378 296.50 410Q271 442 211 442Q129 442 82 371L74 371L77 424Q142 480 237 480Q332 480 377 409Q440 482 536 482Q626 482 677.50 428.50Q729 375 729 279Q729 268 727 242L393 242L393 228Q393 137 436 86.50Q479 36 554 36Q645 36 709 103L703 49Q630-10 528-10Q457-10 407 22Q357 54 342 108M393 277L650 277L650 295Q650 369 617.50 410Q585 451 528 451Q472 451 433.50 403.50Q395 356 393 277M321 247Q206 232 162 208Q112 181 112 124Q112 82 136 57Q160 32 200 32Q323 32 323 178L323 190L321 247Z"  horiz-adv-x="759" vert-adv-y="1024"  />

      
      <glyph glyph-name="unif8" unicode="&#xf8;" d="M142 107L381 400Q347 451 272 451Q121 451 121 237Q121 159 142 107M400 368L160 74Q202 21 273 21Q425 21 425 237Q425 311 400 368M103 59Q36 126 36 236Q36 344 103.50 412.50Q171 481 273 481Q351 481 412 439Q445 483 481 535Q501 516 519 510Q467 453 439 416Q510 348 510 236Q510 126 443 58.50Q376-9 273-9Q186-9 129 36Q75-32 51-68Q36-50 16-41Q55-2 103 59Z"  horiz-adv-x="546" vert-adv-y="1024"  />

      
      <glyph glyph-name="unibf" unicode="&#xbf;" d="M252 640Q252 617 236 601Q220 585 197 585Q174 585 157.50 601Q141 617 141 640Q141 663 158 679.50Q175 696 197 696Q220 696 236 679.50Q252 663 252 640M138 475L146 504Q163 509 180 509Q233 509 263.50 476.50Q294 444 294 391Q294 335 232 270L166 201Q121 154 121 107Q121 67 144 44Q167 21 205 21Q274 21 302 84L313 23Q253-13 195-13Q130-13 91 25.50Q52 64 52 130Q52 196 114 261L170 320Q231 384 231 422Q231 480 174 480Q156 480 138 475Z"  horiz-adv-x="385" vert-adv-y="1024"  />

      
      <glyph glyph-name="unia1" unicode="&#xa1;" d="M219 640Q219 617 202.50 601Q186 585 163 585Q140 585 124 601Q108 617 108 640Q108 663 124.50 679Q141 695 163 695Q186 695 202.50 679Q219 663 219 640M173 520L210 73Q211 61 211 43Q211-9 164-9Q116-9 116 43Q116 48 118 73L154 520L173 520Z"  horiz-adv-x="328" vert-adv-y="1024"  />

      
      <glyph glyph-name="uniac" unicode="&#xac;" d="M709 419L709 174L662 174L662 370L124 370L124 419L709 419Z"  horiz-adv-x="833" vert-adv-y="1024"  />

      
      <glyph glyph-name="uni0192" unicode="&#x0192;" d="M345 360Q389 360 447 363L442 328Q414 330 340 330Q292 71 275 4Q241-129 192-178Q134-237 71-237Q47-237 30-227Q45-192 55-155Q87-187 119-187Q161-187 180-130Q188-104 214 38L267 331L164 328L171 364Q218 361 273 361Q291 458 303 497Q322 559 351 594Q411 666 477 666Q501 666 518 656Q503 623 496 586Q464 615 437 615Q400 615 384 577Q373 550 359 456L345 360Z"  horiz-adv-x="549" vert-adv-y="1024"  />

      
      <glyph glyph-name="uniab" unicode="&#xab;" d="M218 27L197 0L36 236L197 472L218 445L100 236L218 27M405 27L385 0L223 236L385 472L405 445L287 236L405 27Z"  horiz-adv-x="424" vert-adv-y="1024"  />

      
      <glyph glyph-name="unibb" unicode="&#xbb;" d="M17 445L38 472L199 236L38 0L17 27L135 236L17 445M205 445L225 472L387 236L225 0L205 27L323 236L205 445Z"  horiz-adv-x="424" vert-adv-y="1024"  />

      
      <glyph glyph-name="uni2026" unicode="&#x2026;" d="M111 46Q111 69 127.50 85.50Q144 102 167 102Q190 102 206.50 85.50Q223 69 223 46Q223 24 206.50 7.50Q190-9 167-9Q144-9 127.50 7Q111 23 111 46M444 46Q444 69 460.50 85.50Q477 102 500 102Q523 102 539.50 85.50Q556 69 556 46Q556 24 539.50 7.50Q523-9 500-9Q477-9 460.50 7Q444 23 444 46M778 46Q778 69 794.50 85.50Q811 102 834 102Q857 102 873.50 85.50Q890 69 890 46Q890 24 873.50 7.50Q857-9 834-9Q811-9 794.50 7Q778 23 778 46Z"  horiz-adv-x="1000" vert-adv-y="1024"  />

      
      <glyph glyph-name="unic0" unicode="&#xc0;" d="M-4 1Q173 388 305 696L324 696Q464 346 614 0Q587 5 565 5Q542 5 514 0Q477 113 429 227L412 267Q371 269 289 269Q206 269 165 267Q118 160 62 0Q45 5 29 5Q18 5-4 1M182 311Q188 311 213 311Q238 310 258 310Q273 310 318 311Q363 311 392 311L375 355Q362 389 289 559L182 311M396 750L363 750L202 850Q172 869 172 890Q172 925 208 925Q227 925 255 896L396 750Z"  horiz-adv-x="619" vert-adv-y="1024"  />

      
      <glyph glyph-name="unic3" unicode="&#xc3;" d="M-4 1Q173 388 305 696L324 696Q464 346 614 0Q587 5 565 5Q542 5 514 0Q477 113 429 227L412 267Q371 269 289 269Q206 269 165 267Q118 160 62 0Q45 5 29 5Q18 5-4 1M182 311Q188 311 213 311Q238 310 258 310Q273 310 318 311Q363 311 392 311L375 355Q362 389 289 559L182 311M450 895Q431 795 355 795Q338 795 319 800L266 814Q255 817 242 817Q207 817 195 773L170 773Q188 876 266 876Q282 876 297 872L351 858Q370 853 378 853Q411 853 424 895L450 895Z"  horiz-adv-x="619" vert-adv-y="1024"  />

      
      <glyph glyph-name="unid5" unicode="&#xd5;" d="M410-14Q239-14 140 81Q41 176 41 340Q41 502 141.50 598.50Q242 695 410 695Q580 695 679 599Q778 503 778 340Q778 181 677 83.50Q576-14 410-14M410 24Q539 24 609 106Q679 188 679 341Q679 496 610 577Q541 658 410 658Q281 658 211 574.50Q141 491 141 337Q141 186 210.50 105Q280 24 410 24M550 895Q531 795 455 795Q438 795 419 800L366 814Q355 817 342 817Q307 817 295 773L270 773Q288 876 366 876Q382 876 397 872L451 858Q470 853 478 853Q511 853 524 895L550 895Z"  horiz-adv-x="820" vert-adv-y="1024"  />

      
      <glyph glyph-name="uni0152" unicode="&#x0152;" d="M395 24Q518 24 584 105.50Q650 187 650 341Q650 506 590 582.50Q530 659 395 659Q274 659 207 576Q140 493 140 341Q140 186 205.50 105Q271 24 395 24M645 84Q564-13 386-13Q229-13 135 82.50Q41 178 41 340Q41 503 138 599.50Q235 696 397 696Q569 696 650 603L650 683Q697 680 756 680Q827 680 972 683Q972 679 972 669Q971 659 971 654Q971 650 972 640Q972 630 972 625Q865 635 753 635L731 635L729 384L746 384Q831 384 947 392Q946 383 946 364Q946 344 947 333Q905 341 772 341L729 341Q729 335 729 308Q728 281 728 260Q728 227 730 49L753 49Q837 49 976 60Q976 55 976 45Q975 35 975 30Q975 25 976 15Q976 5 976 0Q926 2 818 2Q705 2 645 0L645 84Z"  horiz-adv-x="1002" vert-adv-y="1024"  />

      
      <glyph glyph-name="uni0153" unicode="&#x0153;" d="M467 78Q394-11 267-11Q165-11 101 56Q37 123 37 231Q37 343 106.50 412Q176 481 290 481Q408 481 469 398Q534 483 650 483Q746 483 799 428Q852 373 852 273Q852 253 851 243L504 243Q504 240 504 233Q503 227 503 223Q503 135 551 81.50Q599 28 677 28Q762 28 828 100L826 51Q768-10 658-10Q526-10 467 78M279 21Q431 21 431 230Q431 451 278 451Q126 451 126 237Q126 21 279 21M507 277L774 277L774 294Q774 369 740.50 410Q707 451 647 451Q588 451 548.50 403.50Q509 356 507 277Z"  horiz-adv-x="887" vert-adv-y="1024"  />

      
      <glyph glyph-name="uni2013" unicode="&#x2013;" d="M0 216L0 263L500 263L500 216L0 216Z"  horiz-adv-x="500" vert-adv-y="1024"  />

      
      <glyph glyph-name="uni2014" unicode="&#x2014;" d="M0 216L0 263L1000 263L1000 216L0 216Z"  horiz-adv-x="1000" vert-adv-y="1024"  />

      
      <glyph glyph-name="uni201C" unicode="&#x201C;" d="M218 687L156 467Q143 422 108 422Q72 422 72 456Q72 473 86 497L204 696L218 687M381 687L319 467Q306 422 271 422Q235 422 235 456Q235 473 249 497L367 696L381 687Z"  horiz-adv-x="436" vert-adv-y="1024"  />

      
      <glyph glyph-name="uni201D" unicode="&#x201D;" d="M241 430L302 650Q315 696 347 696Q363 696 374.50 685Q386 674 386 657Q386 642 373 620L254 422L241 430M78 430L139 650Q152 696 184 696Q200 696 211.50 685Q223 674 223 657Q223 642 210 620L91 422L78 430Z"  horiz-adv-x="436" vert-adv-y="1024"  />

      
      <glyph glyph-name="uni2018" unicode="&#x2018;" d="M217 687L155 467Q142 421 110 421Q72 421 72 460Q72 475 85 497L203 696L217 687Z"  horiz-adv-x="273" vert-adv-y="1024"  />

      
      <glyph glyph-name="uni2019" unicode="&#x2019;" d="M78 430L139 650Q152 696 184 696Q200 696 211.50 685Q223 674 223 657Q223 642 210 620L91 422L78 430Z"  horiz-adv-x="273" vert-adv-y="1024"  />

      
      <glyph glyph-name="unif7" unicode="&#xf7;" d="M417 523Q439 523 454 507.50Q469 492 469 470Q469 449 454 433.50Q439 418 417 418Q395 418 380 433Q365 448 365 470Q365 492 380.50 507.50Q396 523 417 523M709 322L709 274L124 274L124 322L709 322M417 178Q439 178 454 163Q469 148 469 126Q469 105 454 89.50Q439 74 417 74Q395 74 380 89Q365 104 365 126Q365 148 380.50 163Q396 178 417 178Z"  horiz-adv-x="833" vert-adv-y="1024"  />

      
      <glyph glyph-name="uniff" unicode="&#xff;" d="M75-273Q125-189 185-50L208 3L166 113Q136 191 10 472Q31 468 59 468Q86 468 107 472Q133 381 214 182L249 96L285 179Q361 355 397 472Q412 468 431 468Q449 468 464 472Q434 413 369 266L235-37Q162-202 144-273Q128-270 110-270Q93-270 75-273M100 611Q100 631 114.50 645.50Q129 660 148 660Q168 660 182.50 645.50Q197 631 197 611Q197 590 182.50 576Q168 562 148 562Q128 562 114 576Q100 590 100 611M271 611Q271 631 286 645.50Q301 660 320 660Q339 660 353.50 645.50Q368 631 368 611Q368 590 354 576Q340 562 320 562Q300 562 285.50 576Q271 590 271 611Z"  horiz-adv-x="467" vert-adv-y="1024"  />

      
      <glyph glyph-name="uni0178" unicode="&#x0178;" d="M228 0Q233 82 233 143Q233 205 228 280Q91 516-9 683Q15 679 46 679Q77 679 101 683Q180 504 288 344Q392 512 468 683Q485 679 505 679Q526 679 542 683Q416 479 315 296Q313 226 313 190Q313 95 319 0Q294 5 274 5Q253 5 228 0M134 825Q134 845 148.50 859.50Q163 874 182 874Q202 874 216.50 859.50Q231 845 231 825Q231 804 216.50 790Q202 776 182 776Q162 776 148 790Q134 804 134 825M305 825Q305 845 320 859.50Q335 874 354 874Q373 874 387.50 859.50Q402 845 402 825Q402 804 388 790Q374 776 354 776Q334 776 319.50 790Q305 804 305 825Z"  horiz-adv-x="536" vert-adv-y="1024"  />

      
      <glyph glyph-name="uni2044" unicode="&#x2044;" d="M284 743L333 743L-121-93L-167-93L284 743Z"  horiz-adv-x="167" vert-adv-y="1024"  />

      
      <glyph glyph-name="unia4" unicode="&#xa4;" d="M176 591Q234 635 303 635Q375 635 431 591L531 691L563 659L463 559Q506 501 506 432Q506 364 463 306L563 205L531 173L431 273Q373 229 303 229Q235 229 176 273L76 173L44 205L144 306Q100 366 100 432Q100 499 144 559L44 659L76 691L176 591M461 433Q461 498 415.50 544Q370 590 304 590Q239 590 192 543.50Q145 497 145 433Q145 368 192 321Q239 274 304 274Q369 274 415 321Q461 368 461 433Z"  horiz-adv-x="606" vert-adv-y="1024"  />

      
      <glyph glyph-name="uni2039" unicode="&#x2039;" d="M218 27L197 0L36 236L197 472L218 445L100 236L218 27Z"  horiz-adv-x="236" vert-adv-y="1024"  />

      
      <glyph glyph-name="uni203A" unicode="&#x203A;" d="M17 445L38 472L199 236L38 0L17 27L135 236L17 445Z"  horiz-adv-x="236" vert-adv-y="1024"  />

      
      <glyph glyph-name="uniF001" unicode="&#xF001;" d="M372 0Q377 137 377 248Q377 350 372 472Q391 468 413 468Q437 468 454 472Q449 350 449 248Q449 137 454 0Q432 5 413 5Q395 5 372 0M362 646Q362 667 377 681.50Q392 696 413 696Q434 696 448.50 681.50Q463 667 463 646Q463 625 448.50 610Q434 595 413 595Q392 595 377 610Q362 625 362 646M78 0Q85 63 85 304L85 430Q62 430 18 428L18 466Q48 464 60 464Q65 464 74 465Q83 465 87 465Q88 599 142 676Q194 750 280 750Q293 750 300 749L290 671Q265 683 233 683Q148 683 148 590Q148 549 156 465Q164 465 178 465Q193 464 200 464Q221 464 259 466L259 425Q253 425 158 430Q158 99 166 0Q143 5 122 5Q103 5 78 0Z"  horiz-adv-x="537" vert-adv-y="1024"  />

      
      <glyph glyph-name="uniF002" unicode="&#xF002;" d="M372 0Q377 94 377 459Q377 673 372 750Q398 748 413 748Q428 748 456 750Q450 640 450 442Q450 131 456 0Q434 3 412 3Q392 3 372 0M78 0Q85 63 85 304L85 430Q62 430 18 428L18 466Q48 464 60 464Q65 464 74 465Q83 465 87 465Q88 599 142 676Q194 750 280 750Q293 750 300 749L290 671Q265 683 233 683Q148 683 148 590Q148 549 156 465Q164 465 178 465Q193 464 200 464Q221 464 259 466L259 425Q253 425 158 430Q158 99 166 0Q143 5 122 5Q103 5 78 0Z"  horiz-adv-x="537" vert-adv-y="1024"  />

      
      <glyph glyph-name="uni2021" unicode="&#x2021;" d="M219 458L167 458Q77 458 48 453L48 508Q120 500 196 500L219 500Q218 586 213 683L281 683Q278 632 275 500L299 500Q377 500 446 508L446 453Q417 458 327 458L275 458Q274 424 274 353Q274 280 275 242L314 242Q408 242 445 248L445 193Q388 200 306 200L275 200Q276 87 281 0L212 0Q216 55 218 200L188 200Q110 200 48 193L48 248Q86 242 179 242L218 242Q220 340 220 380Q220 433 219 458Z"  horiz-adv-x="494" vert-adv-y="1024"  />

      
      <glyph glyph-name="unib7" unicode="&#xb7;" d="M86 332Q86 353 101 368Q116 383 137 383Q158 383 173 368Q188 353 188 332Q188 311 173.50 296Q159 281 137 281Q115 281 100.50 295.50Q86 310 86 332Z"  horiz-adv-x="274" vert-adv-y="1024"  />

      
      <glyph glyph-name="uni2219" unicode="&#x2219;" d="M86 332Q86 353 101 368Q116 383 137 383Q158 383 173 368Q188 353 188 332Q188 311 173.50 296Q159 281 137 281Q115 281 100.50 295.50Q86 310 86 332Z"  horiz-adv-x="274" vert-adv-y="1024"  />

      
      <glyph glyph-name="uni201A" unicode="&#x201A;" d="M44-155L108 62Q122 108 153 108Q191 108 191 69Q191 53 178 32L59-163L44-155Z"  horiz-adv-x="273" vert-adv-y="1024"  />

      
      <glyph glyph-name="uni201E" unicode="&#x201E;" d="M41-155L105 62Q119 108 150 108Q188 108 188 69Q188 52 176 32L57-163L41-155M206-155L270 62Q284 108 315 108Q353 108 353 69Q353 52 341 32L222-163L206-155Z"  horiz-adv-x="436" vert-adv-y="1024"  />

      
      <glyph glyph-name="uni2030" unicode="&#x2030;" d="M35 488Q35 559 79.50 604.50Q124 650 190 650Q255 650 295.50 608Q336 566 336 494Q336 417 293 371.50Q250 326 179 326Q114 326 74.50 370.50Q35 415 35 488M175-93L128-93L597 743L642 743L175-93M432 161Q432 232 476.50 277.50Q521 323 587 323Q652 323 692.50 281Q733 239 733 167Q733 90 690 44.50Q647-1 576-1Q511-1 471.50 43.50Q432 88 432 161M185 621Q108 621 108 500Q108 425 125.50 390Q143 355 185 355Q262 355 262 480Q262 621 185 621M586 293Q509 293 509 173Q509 98 526.50 63Q544 28 586 28Q663 28 663 152Q663 293 586 293M794 161Q794 232 838.50 277.50Q883 323 949 323Q1014 323 1054.50 281Q1095 239 1095 167Q1095 90 1051.50 44.50Q1008-1 937-1Q872-1 833 43.50Q794 88 794 161M947 293Q870 293 870 173Q870 98 887.50 63Q905 28 947 28Q1023 28 1023 152Q1023 226 1005.50 259.50Q988 293 947 293Z"  horiz-adv-x="1130" vert-adv-y="1024"  />

      
      <glyph glyph-name="unic2" unicode="&#xc2;" d="M-4 1Q173 388 305 696L324 696Q464 346 614 0Q587 5 565 5Q542 5 514 0Q477 113 429 227L412 267Q371 269 289 269Q206 269 165 267Q118 160 62 0Q45 5 29 5Q18 5-4 1M182 311Q188 311 213 311Q238 310 258 310Q273 310 318 311Q363 311 392 311L375 355Q362 389 289 559L182 311M168 750L281 920L339 920L452 750L424 750L310 852L196 750L168 750Z"  horiz-adv-x="619" vert-adv-y="1024"  />

      
      <glyph glyph-name="unica" unicode="&#xca;" d="M89 0Q97 123 97 349Q97 553 90 683Q147 680 212 680Q279 680 441 683Q441 679 441 669Q440 659 440 654Q440 650 441 640Q441 630 441 625Q327 635 204 635L181 635Q179 516 179 424L179 384L197 384Q289 384 414 392Q412 372 412 361Q412 351 414 333Q370 341 225 341L178 341L178 293Q178 249 180 49L205 49Q295 49 445 60Q445 55 445 45Q444 35 444 30Q444 25 445 15Q445 5 445 0Q391 2 274 2Q153 2 89 0M123 750L236 920L294 920L407 750L379 750L265 852L151 750L123 750Z"  horiz-adv-x="495" vert-adv-y="1024"  />

      
      <glyph glyph-name="unic1" unicode="&#xc1;" d="M-4 1Q173 388 305 696L324 696Q464 346 614 0Q587 5 565 5Q542 5 514 0Q477 113 429 227L412 267Q371 269 289 269Q206 269 165 267Q118 160 62 0Q45 5 29 5Q18 5-4 1M182 311Q188 311 213 311Q238 310 258 310Q273 310 318 311Q363 311 392 311L375 355Q362 389 289 559L182 311M224 750L365 896Q393 925 412 925Q448 925 448 890Q448 869 418 850L257 750L224 750Z"  horiz-adv-x="619" vert-adv-y="1024"  />

      
      <glyph glyph-name="unicb" unicode="&#xcb;" d="M89 0Q97 123 97 349Q97 553 90 683Q147 680 212 680Q279 680 441 683Q441 679 441 669Q440 659 440 654Q440 650 441 640Q441 630 441 625Q327 635 204 635L181 635Q179 516 179 424L179 384L197 384Q289 384 414 392Q412 372 412 361Q412 351 414 333Q370 341 225 341L178 341L178 293Q178 249 180 49L205 49Q295 49 445 60Q445 55 445 45Q444 35 444 30Q444 25 445 15Q445 5 445 0Q391 2 274 2Q153 2 89 0M131 825Q131 845 145.50 859.50Q160 874 179 874Q199 874 213.50 859.50Q228 845 228 825Q228 804 213.50 790Q199 776 179 776Q159 776 145 790Q131 804 131 825M302 825Q302 845 317 859.50Q332 874 351 874Q370 874 384.50 859.50Q399 845 399 825Q399 804 385 790Q371 776 351 776Q331 776 316.50 790Q302 804 302 825Z"  horiz-adv-x="495" vert-adv-y="1024"  />

      
      <glyph glyph-name="unic8" unicode="&#xc8;" d="M89 0Q97 123 97 349Q97 553 90 683Q147 680 212 680Q279 680 441 683Q441 679 441 669Q440 659 440 654Q440 650 441 640Q441 630 441 625Q327 635 204 635L181 635Q179 516 179 424L179 384L197 384Q289 384 414 392Q412 372 412 361Q412 351 414 333Q370 341 225 341L178 341L178 293Q178 249 180 49L205 49Q295 49 445 60Q445 55 445 45Q444 35 444 30Q444 25 445 15Q445 5 445 0Q391 2 274 2Q153 2 89 0M351 750L318 750L157 850Q127 869 127 890Q127 925 163 925Q182 925 210 896L351 750Z"  horiz-adv-x="495" vert-adv-y="1024"  />

      
      <glyph glyph-name="unicd" unicode="&#xcd;" d="M92 0Q98 94 98 258L98 341Q98 592 92 683Q112 679 137 679Q163 679 184 683Q179 617 179 487L179 341Q179 310 179 255Q178 200 178 176Q178 60 184 0Q159 5 139 5Q119 5 92 0M52 750L193 896Q221 925 240 925Q276 925 276 890Q276 869 246 850L85 750L52 750Z"  horiz-adv-x="275" vert-adv-y="1024"  />

      
      <glyph glyph-name="unice" unicode="&#xce;" d="M92 0Q98 94 98 258L98 341Q98 592 92 683Q112 679 137 679Q163 679 184 683Q179 617 179 487L179 341Q179 310 179 255Q178 200 178 176Q178 60 184 0Q159 5 139 5Q119 5 92 0M-4 750L109 920L167 920L280 750L252 750L138 852L24 750L-4 750Z"  horiz-adv-x="275" vert-adv-y="1024"  />

      
      <glyph glyph-name="unicf" unicode="&#xcf;" d="M92 0Q98 94 98 258L98 341Q98 592 92 683Q112 679 137 679Q163 679 184 683Q179 617 179 487L179 341Q179 310 179 255Q178 200 178 176Q178 60 184 0Q159 5 139 5Q119 5 92 0M4 825Q4 845 18.50 859.50Q33 874 52 874Q72 874 86.50 859.50Q101 845 101 825Q101 804 86.50 790Q72 776 52 776Q32 776 18 790Q4 804 4 825M175 825Q175 845 190 859.50Q205 874 224 874Q243 874 257.50 859.50Q272 845 272 825Q272 804 258 790Q244 776 224 776Q204 776 189.50 790Q175 804 175 825Z"  horiz-adv-x="275" vert-adv-y="1024"  />

      
      <glyph glyph-name="unicc" unicode="&#xcc;" d="M92 0Q98 94 98 258L98 341Q98 592 92 683Q112 679 137 679Q163 679 184 683Q179 617 179 487L179 341Q179 310 179 255Q178 200 178 176Q178 60 184 0Q159 5 139 5Q119 5 92 0M224 750L191 750L30 850Q0 869 0 890Q0 925 36 925Q55 925 83 896L224 750Z"  horiz-adv-x="275" vert-adv-y="1024"  />

      
      <glyph glyph-name="unid3" unicode="&#xd3;" d="M410-14Q239-14 140 81Q41 176 41 340Q41 502 141.50 598.50Q242 695 410 695Q580 695 679 599Q778 503 778 340Q778 181 677 83.50Q576-14 410-14M410 24Q539 24 609 106Q679 188 679 341Q679 496 610 577Q541 658 410 658Q281 658 211 574.50Q141 491 141 337Q141 186 210.50 105Q280 24 410 24M324 750L465 896Q493 925 512 925Q548 925 548 890Q548 869 518 850L357 750L324 750Z"  horiz-adv-x="820" vert-adv-y="1024"  />

      
      <glyph glyph-name="unid4" unicode="&#xd4;" d="M410-14Q239-14 140 81Q41 176 41 340Q41 502 141.50 598.50Q242 695 410 695Q580 695 679 599Q778 503 778 340Q778 181 677 83.50Q576-14 410-14M410 24Q539 24 609 106Q679 188 679 341Q679 496 610 577Q541 658 410 658Q281 658 211 574.50Q141 491 141 337Q141 186 210.50 105Q280 24 410 24M268 750L381 920L439 920L552 750L524 750L410 852L296 750L268 750Z"  horiz-adv-x="820" vert-adv-y="1024"  />

      
      <glyph glyph-name="unid2" unicode="&#xd2;" d="M410-14Q239-14 140 81Q41 176 41 340Q41 502 141.50 598.50Q242 695 410 695Q580 695 679 599Q778 503 778 340Q778 181 677 83.50Q576-14 410-14M410 24Q539 24 609 106Q679 188 679 341Q679 496 610 577Q541 658 410 658Q281 658 211 574.50Q141 491 141 337Q141 186 210.50 105Q280 24 410 24M496 750L463 750L302 850Q272 869 272 890Q272 925 308 925Q327 925 355 896L496 750Z"  horiz-adv-x="820" vert-adv-y="1024"  />

      
      <glyph glyph-name="unida" unicode="&#xda;" d="M91 683Q111 679 135 679Q162 679 182 684L178 320Q178 244 185 205Q195 141 228 101Q284 33 392 33Q501 33 557 103Q589 143 599 213Q606 260 606 370Q606 539 602 683Q617 679 633 679Q651 679 666 683Q661 554 661 501L661 475Q661 312 656 249Q647 154 620 106Q551-13 376-13Q227-13 159 59.50Q91 132 91 288Q91 294 92.50 363Q94 432 94 494Q94 575 91 683M299 750L440 896Q468 925 487 925Q523 925 523 890Q523 869 493 850L332 750L299 750Z"  horiz-adv-x="750" vert-adv-y="1024"  />

      
      <glyph glyph-name="unidb" unicode="&#xdb;" d="M91 683Q111 679 135 679Q162 679 182 684L178 320Q178 244 185 205Q195 141 228 101Q284 33 392 33Q501 33 557 103Q589 143 599 213Q606 260 606 370Q606 539 602 683Q617 679 633 679Q651 679 666 683Q661 554 661 501L661 475Q661 312 656 249Q647 154 620 106Q551-13 376-13Q227-13 159 59.50Q91 132 91 288Q91 294 92.50 363Q94 432 94 494Q94 575 91 683M243 750L356 920L414 920L527 750L499 750L385 852L271 750L243 750Z"  horiz-adv-x="750" vert-adv-y="1024"  />

      
      <glyph glyph-name="unid9" unicode="&#xd9;" d="M91 683Q111 679 135 679Q162 679 182 684L178 320Q178 244 185 205Q195 141 228 101Q284 33 392 33Q501 33 557 103Q589 143 599 213Q606 260 606 370Q606 539 602 683Q617 679 633 679Q651 679 666 683Q661 554 661 501L661 475Q661 312 656 249Q647 154 620 106Q551-13 376-13Q227-13 159 59.50Q91 132 91 288Q91 294 92.50 363Q94 432 94 494Q94 575 91 683M471 750L438 750L277 850Q247 869 247 890Q247 925 283 925Q302 925 330 896L471 750Z"  horiz-adv-x="750" vert-adv-y="1024"  />

      
      <glyph glyph-name="uni0131" unicode="&#x0131;" d="M83 0Q88 137 88 248Q88 350 83 472Q102 468 124 468Q148 468 165 472Q160 349 160 248Q160 137 165 0Q143 5 124 5Q106 5 83 0Z"  horiz-adv-x="248" vert-adv-y="1024"  />

      
      <glyph glyph-name="uni02C6" unicode="&#x02C6;" d="M108 536L221 706L279 706L392 536L364 536L250 638L136 536L108 536Z"  horiz-adv-x="500" vert-adv-y="1024"  />

      
      <glyph glyph-name="uni02DC" unicode="&#x02DC;" d="M390 681Q371 581 295 581Q278 581 259 586L206 600Q195 603 182 603Q147 603 135 559L110 559Q128 662 206 662Q222 662 237 658L291 644Q310 639 318 639Q351 639 364 681L390 681Z"  horiz-adv-x="500" vert-adv-y="1024"  />

      
      <glyph glyph-name="uniaf" unicode="&#xaf;" d="M124 581L124 642L376 642L376 581L124 581Z"  horiz-adv-x="500" vert-adv-y="1024"  />

      
      <glyph glyph-name="uni02C9" unicode="&#x02C9;" d="M124 581L124 642L376 642L376 581L124 581Z"  horiz-adv-x="500" vert-adv-y="1024"  />

      
      <glyph glyph-name="uni02D8" unicode="&#x02D8;" d="M107 687L132 687Q147 618 250 618Q352 618 367 687L392 687Q372 555 250 555Q128 555 107 687Z"  horiz-adv-x="500" vert-adv-y="1024"  />

      
      <glyph glyph-name="uni02D9" unicode="&#x02D9;" d="M199 611Q199 633 214 648Q229 663 250 663Q272 663 286.50 648Q301 633 301 611Q301 591 286 575.50Q271 560 250 560Q230 560 214.50 575.50Q199 591 199 611Z"  horiz-adv-x="500" vert-adv-y="1024"  />

      
      <glyph glyph-name="uni02DA" unicode="&#x02DA;" d="M247 524Q195 524 162 556.50Q129 589 129 639Q129 691 165.50 727.50Q202 764 254 764Q308 764 340.50 732Q373 700 373 649Q373 596 336.50 560Q300 524 247 524M253 734Q217 734 195.50 708.50Q174 683 174 637Q174 555 249 555Q327 555 327 650Q327 734 253 734Z"  horiz-adv-x="500" vert-adv-y="1024"  />

      
      <glyph glyph-name="unib8" unicode="&#xb8;" d="M119-183L134-150Q199-178 246-178Q305-178 305-133Q305-89 248-89Q236-89 219-92L219 0L250 0L250-55Q265-52 280-52Q321-52 345-73Q369-94 369-129Q369-214 265-214Q203-214 119-183Z"  horiz-adv-x="500" vert-adv-y="1024"  />

      
      <glyph glyph-name="uni02DD" unicode="&#x02DD;" d="M156 536L226 672Q247 712 271 712Q285 712 294.50 702.50Q304 693 304 679Q304 662 284 641L184 536L156 536M290 536L360 672Q381 712 405 712Q419 712 428.50 702.50Q438 693 438 679Q438 662 418 641L319 536L290 536Z"  horiz-adv-x="500" vert-adv-y="1024"  />

      
      <glyph glyph-name="uni02DB" unicode="&#x02DB;" d="M289 15Q201-54 201-115Q201-173 250-173Q289-173 308-137L322-146Q286-219 219-219Q185-219 163.50-199Q142-179 142-149Q142-65 265 15L289 15Z"  horiz-adv-x="500" vert-adv-y="1024"  />

      
      <glyph glyph-name="uni02C7" unicode="&#x02C7;" d="M108 706L136 706L250 603L364 706L392 706L279 536L221 536L108 706Z"  horiz-adv-x="500" vert-adv-y="1024"  />

      
      <glyph glyph-name="uni0141" unicode="&#x0141;" d="M93 0Q98 130 100 294Q57 263 11 225L-12 265Q9 278 100 337Q98 555 93 683Q114 679 139 679Q165 679 185 683Q181 605 176 390Q246 440 300 484L322 443Q269 411 176 344Q178 152 183 47Q204 46 250 46Q384 46 455 62Q455 57 455 47Q454 37 454 31Q454 26 455 16Q455 6 455 0L222 3Q153 3 93 0Z"  horiz-adv-x="494" vert-adv-y="1024"  />

      
      <glyph glyph-name="uni0142" unicode="&#x0142;" d="M77 0Q81 116 81 253L81 328Q68 318 12 273L-10 311Q35 337 82 370L82 466Q82 646 77 750Q103 748 117 748Q132 748 160 750Q155 643 155 491L155 420Q194 448 227 477L250 438Q208 413 155 378Q155 105 160 0Q138 3 117 3Q97 3 77 0Z"  horiz-adv-x="237" vert-adv-y="1024"  />

      
      <glyph glyph-name="uni0160" unicode="&#x0160;" d="M42 40Q60 93 64 146Q111 27 229 27Q293 27 332.50 66.50Q372 106 372 174Q372 222 347 251Q325 277 271 300L190 334Q57 390 57 502Q57 587 115.50 641Q174 695 268 695Q347 695 420 658Q405 627 392 581Q339 658 254 658Q199 658 166.50 624.50Q134 591 134 534Q134 456 235 412L316 377Q386 347 417 307Q448 267 448 203Q448 106 383 46.50Q318-13 210-13Q110-13 42 40M103 920L131 920L245 817L359 920L387 920L274 750L216 750L103 920Z"  horiz-adv-x="490" vert-adv-y="1024"  />

      
      <glyph glyph-name="uni0161" unicode="&#x0161;" d="M48 104Q97 28 170 28Q215 28 241 52.50Q267 77 267 119Q267 179 188 201L142 214Q85 230 59.50 260Q34 290 34 343Q34 403 76 442Q118 481 187 481Q259 481 312 448Q297 417 291 385Q234 451 175 451Q137 451 113.50 427.50Q90 404 90 367Q90 305 166 283L234 263Q330 235 330 148Q330 80 281 35.50Q232-9 153-9Q75-9 24 27Q39 65 48 104M36 706L64 706L178 603L292 706L320 706L207 536L149 536L36 706Z"  horiz-adv-x="356" vert-adv-y="1024"  />

      
      <glyph glyph-name="uni017D" unicode="&#x017D;" d="M8 0Q242 330 438 635Q412 636 358 636Q223 636 58 625Q60 645 60 654Q60 665 58 683Q234 679 323 679Q411 679 587 683Q340 356 147 51Q227 49 267 49Q410 49 569 60Q568 50 568 30Q568 9 569-1Q353 3 250 3Q127 3 8 0M158 920L186 920L300 817L414 920L442 920L329 750L271 750L158 920Z"  horiz-adv-x="599" vert-adv-y="1024"  />

      
      <glyph glyph-name="uni017E" unicode="&#x017E;" d="M-2 0L-2 21Q216 290 314 429L274 429Q165 429 51 416Q52 422 52 436Q52 446 50 470Q166 468 218 468Q334 468 421 472L421 452Q225 205 112 42Q317 45 416 57Q414 41 414 34Q414 18 417 0Q265 4 187 4Q81 4-2 0M83 706L111 706L225 603L339 706L367 706L254 536L196 536L83 706Z"  horiz-adv-x="450" vert-adv-y="1024"  />

      
      <glyph glyph-name="unia6" unicode="&#xa6;" d="M277 699L277 329L224 329L224 699L277 699M277 199L277-171L224-171L224 199L277 199Z"  horiz-adv-x="500" vert-adv-y="1024"  />

      
      <glyph glyph-name="unid0" unicode="&#xd0;" d="M91 0Q96 137 96 283L96 350Q52 350 0 346L0 391Q26 388 67 388L96 388Q96 559 91 683Q135 681 167 681Q187 681 251 683.50Q315 686 360 686Q513 686 584 638Q712 552 712 362Q712 185 611.50 91.50Q511-2 318-2Q295-2 246 0Q197 2 172 2Q173 2 91 0M181 43Q244 38 286 38Q614 38 614 343Q614 504 547 575Q480 646 331 646Q251 646 181 641L177 388L235 388Q319 388 373 391L373 346Q322 348 176 350Q177 213 181 43Z"  horiz-adv-x="757" vert-adv-y="1024"  />

      
      <glyph glyph-name="unif0" unicode="&#xf0;" d="M273 21Q425 21 425 237Q425 340 385 395.50Q345 451 272 451Q121 451 121 237Q121 21 273 21M361 465Q319 517 233 596Q186 556 127 502L105 529Q155 572 208 619Q156 671 111 708L156 750Q203 696 247 653Q301 698 346 741L369 712Q325 679 271 628Q394 514 449 428Q510 332 510 236Q510 126 443 58.50Q376-9 273-9Q169-9 102.50 59Q36 127 36 236Q36 344 102.50 412.50Q169 481 273 481Q322 481 361 465Z"  horiz-adv-x="546" vert-adv-y="1024"  />

      
      <glyph glyph-name="unidd" unicode="&#xdd;" d="M228 0Q233 82 233 143Q233 205 228 280Q91 516-9 683Q15 679 46 679Q77 679 101 683Q180 504 288 344Q392 512 468 683Q485 679 505 679Q526 679 542 683Q416 479 315 296Q313 226 313 190Q313 95 319 0Q294 5 274 5Q253 5 228 0M182 750L323 896Q351 925 370 925Q406 925 406 890Q406 869 376 850L215 750L182 750Z"  horiz-adv-x="536" vert-adv-y="1024"  />

      
      <glyph glyph-name="unifd" unicode="&#xfd;" d="M75-273Q125-189 185-50L208 3L166 113Q136 191 10 472Q31 468 59 468Q86 468 107 472Q133 381 214 182L249 96L285 179Q361 355 397 472Q412 468 431 468Q449 468 464 472Q434 413 369 266L235-37Q162-202 144-273Q128-270 110-270Q93-270 75-273M148 536L289 682Q317 711 336 711Q372 711 372 676Q372 655 342 636L181 536L148 536Z"  horiz-adv-x="467" vert-adv-y="1024"  />

      
      <glyph glyph-name="unide" unicode="&#xde;" d="M88 0Q94 164 94 341Q94 525 88 683Q120 681 134 681Q150 681 180 683Q179 642 179 580Q248 586 304 586Q412 586 470 540Q528 494 528 411Q528 210 241 210Q206 210 175 212L175 170Q175 91 180 1Q150 5 136 5Q115 5 88 0M174 248Q200 246 219 246Q434 246 434 402Q434 481 388 514Q342 547 241 547Q212 547 179 544Q174 441 174 338L174 248Z"  horiz-adv-x="558" vert-adv-y="1024"  />

      
      <glyph glyph-name="unife" unicode="&#xfe;" d="M77-273Q83-17 83 246Q83 554 77 750Q96 746 118 746Q141 746 161 750Q153 562 151 382Q210 483 319 483Q416 483 468.50 419.50Q521 356 521 235Q521 122 463 55Q405-12 315-12Q209-12 155 73L155-47Q155-53 160-273Q137-268 119-268Q100-268 77-273M149 235Q149 26 292 26Q361 26 398.50 80.50Q436 135 436 238Q436 336 398 388.50Q360 441 292 441Q226 441 187.50 387.50Q149 334 149 235Z"  horiz-adv-x="558" vert-adv-y="1024"  />

      
      <glyph glyph-name="uniad" unicode="&#xad;" d="M709 322L709 274L124 274L124 322L709 322Z"  horiz-adv-x="833" vert-adv-y="1024"  />

      
      <glyph glyph-name="uni2212" unicode="&#x2212;" d="M709 322L709 274L124 274L124 322L709 322Z"  horiz-adv-x="833" vert-adv-y="1024"  />

      
      <glyph glyph-name="unid7" unicode="&#xd7;" d="M418 332L653 567L687 533L452 298L687 63L653 29L418 264L183 29L149 63L384 298L149 533L183 567L418 332Z"  horiz-adv-x="833" vert-adv-y="1024"  />

      
      <glyph glyph-name="unib9" unicode="&#xb9;" d="M163 260Q169 407 169 532Q169 593 167 622L67 569Q60 585 46 597Q124 623 227 672Q221 552 221 364Q221 300 223 260Q213 262 193 262Q173 262 163 260Z"  horiz-adv-x="362" vert-adv-y="1024"  />

      
      <glyph glyph-name="unib2" unicode="&#xb2;" d="M31 260L31 270Q148 374 187 422Q242 490 242 550Q242 638 165 638Q104 638 81 567Q67 588 54 601Q97 660 176 660Q235 660 267.50 631.50Q300 603 300 552Q300 497 249 443Q208 405 102 300L167 300Q225 300 305 305Q304 299 304 287Q304 269 306 260Q261 261 170 261Q78 261 31 260Z"  horiz-adv-x="362" vert-adv-y="1024"  />

      
      <glyph glyph-name="unib3" unicode="&#xb3;" d="M41 271Q50 297 51 319Q80 271 145 271Q243 271 243 376Q243 457 160 457Q142 457 123 453Q123 455 124 459Q124 463 124 465Q124 467 124 472Q123 476 123 478Q127 477 137 477Q224 477 224 563Q224 640 154 640Q100 640 81 588Q63 612 55 621Q99 660 164 660Q219 660 250 634.50Q281 609 281 565Q281 500 189 468Q302 465 302 373Q302 318 258 284Q214 250 141 250Q83 250 41 271Z"  horiz-adv-x="362" vert-adv-y="1024"  />

      
      <glyph glyph-name="unibd" unicode="&#xbd;" d="M155 286Q161 423 161 540Q161 570 159 624L63 574Q54 591 43 600Q112 623 216 671Q211 577 211 383Q211 323 212 286Q203 288 184 288Q165 288 155 286M630 743L679 743L225-93L179-93L630 743M543 0L543 10Q653 106 691 152Q744 215 744 270Q744 353 670 353Q613 353 590 287Q577 307 565 318Q606 373 681 373Q737 373 768.50 346Q800 319 800 272Q800 222 751 171Q712 135 610 38Q633 37 672 37Q729 37 804 42Q803 36 803 25Q803 8 805 0Q762 1 675 1Q587 1 543 0Z"  horiz-adv-x="858" vert-adv-y="1024"  />

      
      <glyph glyph-name="unibc" unicode="&#xbc;" d="M155 286Q161 423 161 540Q161 570 159 624L63 574Q54 591 43 600Q112 623 216 671Q211 577 211 383Q211 323 212 286Q203 288 184 288Q165 288 155 286M630 743L679 743L225-93L179-93L630 743M716 0Q720 40 720 76Q720 80 720 90Q719 99 719 104Q687 105 626 105Q557 105 525 104L525 112Q603 204 728 371Q732 371 738 371Q745 370 748 370Q751 370 758 371Q764 371 768 371Q765 331 765 207Q765 162 766 137Q773 136 786 136Q799 136 823 138L823 104Q810 104 766 106Q765 73 765 44Q765 18 767 0Q759 1 742 1Q725 1 716 0M576 137L721 137L721 321Q689 290 576 137Z"  horiz-adv-x="858" vert-adv-y="1024"  />

      
      <glyph glyph-name="unibe" unicode="&#xbe;" d="M39 296Q46 316 49 341Q76 297 138 297Q232 297 232 394Q232 470 153 470Q136 470 117 466Q118 470 118 478Q118 485 117 489L131 489Q214 489 214 569Q214 641 147 641Q96 641 77 592Q69 604 52 623Q93 659 156 659Q208 659 238 635.50Q268 612 268 571Q268 510 180 480Q289 477 289 391Q289 340 247 308.50Q205 277 135 277Q79 277 39 296M630 743L679 743L225-93L179-93L630 743M716 0Q720 40 720 76Q720 80 720 90Q719 99 719 104Q687 105 626 105Q557 105 525 104L525 112Q603 204 728 371Q732 371 738 371Q745 370 748 370Q751 370 758 371Q764 371 768 371Q765 331 765 207Q765 162 766 137Q773 136 786 136Q799 136 823 138L823 104Q810 104 766 106Q765 73 765 44Q765 18 767 0Q759 1 742 1Q725 1 716 0M576 137L721 137L721 321Q689 290 576 137Z"  horiz-adv-x="859" vert-adv-y="1024"  />

      
      <glyph glyph-name="uni011E" unicode="&#x011E;" d="M680 30Q538-12 414-12Q242-12 142 81Q42 174 42 331Q42 497 149.50 596.50Q257 696 438 696Q583 696 684 632Q669 586 660 544Q582 658 422 658Q297 658 219 572Q141 486 141 340Q141 196 222 110.50Q303 25 434 25Q518 25 596 59Q598 127 598 157Q598 224 595 285Q623 281 637 281Q651 281 679 285Q676 179 676 128Q676 70 680 30M285 879L310 879Q325 810 428 810Q530 810 545 879L570 879Q550 747 428 747Q306 747 285 879Z"  horiz-adv-x="730" vert-adv-y="1024"  />

      
      <glyph glyph-name="uni011F" unicode="&#x011F;" d="M141 181Q41 213 41 315Q41 391 94.50 437Q148 483 240 483Q267 483 305.50 477.50Q344 472 357 472Q383 472 454 480L454 436Q421 439 392 439L372 439Q411 387 411 325Q411 250 362.50 207.50Q314 165 230 165Q217 165 198.50 167Q180 169 175 169Q128 169 128 122Q128 67 206 67Q205 67 224 68Q242 68 262 68Q368 68 413 41Q463 10 463-68Q463-160 393-217.50Q323-275 208-275Q124-275 75.50-235.50Q27-196 27-131Q27-33 138 4Q62 21 62 88Q62 141 141 181M174-2Q86-30 86-119Q86-175 124-210Q162-245 224-245Q299-245 346.50-205.50Q394-166 394-105Q394-40 349-18Q311 0 205 0Q196 0 174-2M336 323Q336 455 232 455Q182 455 151 418.50Q120 382 120 323Q120 260 150 225.50Q180 191 232 191Q336 191 336 323M107 687L132 687Q147 618 250 618Q352 618 367 687L392 687Q372 555 250 555Q128 555 107 687Z"  horiz-adv-x="457" vert-adv-y="1024"  />

      
      <glyph glyph-name="uni0130" unicode="&#x0130;" d="M92 0Q98 94 98 258L98 341Q98 592 92 683Q112 679 137 679Q163 679 184 683Q179 617 179 487L179 341Q179 310 179 255Q178 200 178 176Q178 60 184 0Q159 5 139 5Q119 5 92 0M85 818Q85 840 100 855Q115 870 136 870Q158 870 172.50 855Q187 840 187 818Q187 798 172 782.50Q157 767 136 767Q116 767 100.50 782.50Q85 798 85 818Z"  horiz-adv-x="275" vert-adv-y="1024"  />

      
      <glyph glyph-name="uni015E" unicode="&#x015E;" d="M42 40Q60 93 64 146Q111 27 229 27Q293 27 332.50 66.50Q372 106 372 174Q372 222 347 251Q325 277 271 300L190 334Q57 390 57 502Q57 587 115.50 641Q174 695 268 695Q347 695 420 658Q405 627 392 581Q339 658 254 658Q199 658 166.50 624.50Q134 591 134 534Q134 456 235 412L316 377Q386 347 417 307Q448 267 448 203Q448 106 383 46.50Q318-13 210-13Q110-13 42 40M124-268L186-82Q199-43 229-43Q266-43 266-76Q266-90 253-108L139-275L124-268Z"  horiz-adv-x="490" vert-adv-y="1024"  />

      
      <glyph glyph-name="uni015F" unicode="&#x015F;" d="M48 104Q97 28 170 28Q215 28 241 52.50Q267 77 267 119Q267 179 188 201L142 214Q85 230 59.50 260Q34 290 34 343Q34 403 76 442Q118 481 187 481Q259 481 312 448Q297 417 291 385Q234 451 175 451Q137 451 113.50 427.50Q90 404 90 367Q90 305 166 283L234 263Q330 235 330 148Q330 80 281 35.50Q232-9 153-9Q75-9 24 27Q39 65 48 104M77-257L138-70Q151-30 181-30Q217-30 217-64Q217-77 205-96L91-264L77-257Z"  horiz-adv-x="356" vert-adv-y="1024"  />

      
      <glyph glyph-name="uni0106" unicode="&#x0106;" d="M614 43Q538-13 390-13Q224-13 132.50 79.50Q41 172 41 341Q41 502 141.50 599Q242 696 412 696Q531 696 627 648Q611 597 611 552Q542 659 409 659Q284 659 214 575.50Q144 492 144 340Q144 192 213.50 108.50Q283 25 402 25Q517 25 620 109L614 43M324 752L465 898Q493 927 512 927Q548 927 548 892Q548 871 518 852L357 752L324 752Z"  horiz-adv-x="656" vert-adv-y="1024"  />

      
      <glyph glyph-name="uni0107" unicode="&#x0107;" d="M440 40Q376-10 269-10Q164-10 99.50 57Q35 124 35 235Q35 347 103 414Q171 481 283 481Q369 481 446 441Q430 404 419 355Q377 449 283 449Q204 449 160 393.50Q116 338 116 236Q116 138 163.50 81.50Q211 25 290 25Q370 25 441 97Q439 69 439 60Q439 46 440 40M199 538L340 684Q368 713 387 713Q423 713 423 678Q423 657 393 638L232 538L199 538Z"  horiz-adv-x="463" vert-adv-y="1024"  />

      
      <glyph glyph-name="uni010C" unicode="&#x010C;" d="M614 43Q538-13 390-13Q224-13 132.50 79.50Q41 172 41 341Q41 502 141.50 599Q242 696 412 696Q531 696 627 648Q611 597 611 552Q542 659 409 659Q284 659 214 575.50Q144 492 144 340Q144 192 213.50 108.50Q283 25 402 25Q517 25 620 109L614 43M256 903L284 903L398 800L512 903L540 903L427 733L369 733L256 903Z"  horiz-adv-x="656" vert-adv-y="1024"  />

      
      <glyph glyph-name="uni010D" unicode="&#x010D;" d="M440 40Q376-10 269-10Q164-10 99.50 57Q35 124 35 235Q35 347 103 414Q171 481 283 481Q369 481 446 441Q430 404 419 355Q377 449 283 449Q204 449 160 393.50Q116 338 116 236Q116 138 163.50 81.50Q211 25 290 25Q370 25 441 97Q439 69 439 60Q439 46 440 40M108 706L136 706L250 603L364 706L392 706L279 536L221 536L108 706Z"  horiz-adv-x="463" vert-adv-y="1024"  />

      
      <glyph glyph-name="uni0111" unicode="&#x0111;" d="M406 0Q408 38 408 59Q408 84 407 97Q352-9 236-9Q146-9 90.50 55.50Q35 120 35 228Q35 342 94.50 411.50Q154 481 247 481Q350 481 405 389Q405 439 406 499Q406 559 406 569Q406 663 403 750Q429 743 446 743Q464 743 488 750Q484 631 484 429Q484 192 490 0Q467 5 448 5Q429 5 406 0M267 443Q197 443 157.50 388Q118 333 118 231Q118 134 154.50 81.50Q191 29 256 29Q328 29 367.50 85.50Q407 142 407 250Q407 343 370 393Q333 443 267 443M307 589L307 650L559 650L559 589L307 589Z"  horiz-adv-x="560" vert-adv-y="1024"  />

      
      <glyph glyph-name="unib5" unicode="&#xb5;" d="M168 520L107 231Q99 193 99 163Q99 44 209 44Q335 44 379 248L438 520L506 520L426 144Q415 92 415 79Q415 47 448 47Q456 47 466 48L456-6Q437-11 414-11Q347-11 347 60L347 67Q304-12 201-12Q109-12 70 64L14-208L-54-208L100 520L168 520Z"  horiz-adv-x="475" vert-adv-y="1024"  />

      
      <glyph glyph-name="uni0100" unicode="&#x0100;" d="M-4 1Q173 388 305 696L324 696Q464 346 614 0Q587 5 565 5Q542 5 514 0Q477 113 429 227L412 267Q371 269 289 269Q206 269 165 267Q118 160 62 0Q45 5 29 5Q18 5-4 1M182 311Q188 311 213 311Q238 310 258 310Q273 310 318 311Q363 311 392 311L375 355Q362 389 289 559L182 311M185 736L185 797L437 797L437 736L185 736Z"  horiz-adv-x="619" vert-adv-y="1024"  />

      
      <glyph glyph-name="uni0101" unicode="&#x0101;" d="M322 58Q258-9 173-9Q35-9 35 114Q35 219 151 244Q206 255 262 266Q309 276 325 290L325 311Q325 378 299.50 410Q274 442 214 442Q132 442 85 371L77 371L79 424Q146 480 240 480Q324 480 361 439.50Q398 399 398 312L398 300L394 101Q394 67 399 55Q408 35 438 35Q449 35 455 36L459 16Q405 0 377 0Q331 0 322 58M323 248Q205 228 166 208Q117 183 117 127Q117 32 206 32Q262 32 306 76Q323 93 323 119L323 248M124 581L124 642L376 642L376 581L124 581Z"  horiz-adv-x="481" vert-adv-y="1024"  />

      
      </font>
</defs>
</svg>
